<?xml version="1.0" encoding="UTF-8"?>
<!DOCTYPE svg PUBLIC "-//W3C//DTD SVG 1.1//EN" "http://www.w3.org/Graphics/SVG/1.1/DTD/svg11.dtd">
<!-- Creator: CorelDRAW X7 -->
<svg xmlns="http://www.w3.org/2000/svg" xml:space="preserve" width="5.07998cm" height="5.07998cm" version="1.1" style="shape-rendering:geometricPrecision; text-rendering:geometricPrecision; image-rendering:optimizeQuality; fill-rule:evenodd; clip-rule:evenodd"
viewBox="0 0 5080 5080"
 xmlns:xlink="http://www.w3.org/1999/xlink">
 <defs>
  <style type="text/css">
   <![CDATA[
    .fil3 {fill:#003333}
    .fil4 {fill:#184040}
    .fil0 {fill:#61DAFB}
    .fil2 {fill:#003333}
    .fil1 {fill:#336666}
   ]]>
  </style>
 </defs>
 <g id="Layer_x0020_1">
  <metadata id="CorelCorpID_0Corel-Layer"/>
  <rect class="fil0" width="5080" height="5080"/>
  <polygon class="fil1" points="1208,1772 2496,1028 3784,1772 2496,2515 2496,4003 1208,3259 "/>
  <polygon class="fil2" points="4291,1479 2496,443 701,1479 701,3552 2496,4588 4291,3552 3932,3344 2496,4173 1060,3344 1060,1686 2496,857 3932,1686 "/>
  <polygon class="fil3" points="2755,3754 2755,2691 3676,2160 4596,2691 4596,3754 3676,4285 "/>
  <polygon class="fil4" points="4596,3754 4596,2691 3676,2160 2755,2691 3676,3222 3676,4285 "/>
 </g>
</svg>
