<?xml version="1.0" encoding="UTF-8"?>
<!DOCTYPE svg PUBLIC "-//W3C//DTD SVG 1.1//EN" "http://www.w3.org/Graphics/SVG/1.1/DTD/svg11.dtd">
<!-- Creator: CorelDRAW X7 -->
<svg xmlns="http://www.w3.org/2000/svg" xml:space="preserve" width="13.5467cm" height="16.256cm" version="1.1" style="shape-rendering:geometricPrecision; text-rendering:geometricPrecision; image-rendering:optimizeQuality; fill-rule:evenodd; clip-rule:evenodd"
viewBox="0 0 13547 16256"
 xmlns:xlink="http://www.w3.org/1999/xlink">
 <defs>
  <style type="text/css">
   <![CDATA[
    .fil0 {fill:#373940}
    .fil1 {fill:#999999;fill-rule:nonzero}
   ]]>
  </style>
 </defs>
 <g id="Layer_x0020_1">
  <metadata id="CorelCorpID_0Corel-Layer"/>
  <rect class="fil0" width="13547" height="16256"/>
  <path class="fil1" d="M4994 8427l-75 0 0 -474c-17,17 -41,34 -70,51 -29,17 -55,30 -79,39l0 -72c42,-20 79,-44 110,-71 31,-28 53,-55 66,-81l48 0 0 608z"/>
  <path id="1" class="fil1" d="M5572 7969l-73 6c-7,-29 -16,-50 -29,-64 -20,-21 -45,-32 -74,-32 -24,0 -45,7 -64,20 -23,17 -41,42 -55,75 -14,33 -21,80 -21,140 18,-27 40,-47 66,-61 26,-13 53,-19 81,-19 50,0 92,18 127,54 35,37 53,84 53,142 0,38 -9,74 -25,106 -17,33 -39,58 -68,75 -28,18 -61,26 -97,26 -62,0 -113,-22 -152,-68 -39,-46 -59,-121 -59,-225 0,-118 22,-203 65,-256 38,-46 89,-69 153,-69 48,0 87,13 118,40 30,26 48,63 54,110zm-304 262c0,26 5,50 16,74 11,23 26,41 45,53 20,12 40,18 62,18 32,0 59,-12 82,-38 22,-25 33,-59 33,-103 0,-42 -11,-75 -33,-99 -22,-24 -50,-36 -85,-36 -33,0 -62,12 -85,36 -24,24 -35,56 -35,95z"/>
  <path id="2" class="fil1" d="M5656 8128c0,-71 8,-129 22,-173 15,-44 37,-78 66,-101 29,-24 66,-35 110,-35 32,0 61,6 85,19 25,13 45,32 61,57 16,24 28,54 37,90 9,35 14,83 14,143 0,71 -7,129 -22,173 -14,43 -36,77 -65,101 -29,24 -66,35 -110,35 -59,0 -105,-20 -138,-62 -40,-51 -60,-133 -60,-247zm77 0c0,100 11,167 34,199 24,33 52,49 87,49 34,0 63,-16 86,-49 23,-33 35,-99 35,-199 0,-99 -12,-166 -35,-198 -23,-33 -52,-50 -87,-50 -34,0 -62,15 -82,44 -26,37 -38,105 -38,204z"/>
  <path id="3" class="fil1" d="M6127 8128c0,-71 8,-129 22,-173 15,-44 37,-78 66,-101 29,-24 66,-35 110,-35 32,0 60,6 85,19 25,13 45,32 61,57 16,24 28,54 37,90 9,35 14,83 14,143 0,71 -8,129 -22,173 -15,43 -36,77 -66,101 -28,24 -65,35 -109,35 -59,0 -105,-20 -138,-62 -40,-51 -60,-133 -60,-247zm76 0c0,100 12,167 35,199 24,33 52,49 87,49 34,0 62,-16 86,-49 23,-33 35,-99 35,-199 0,-99 -12,-166 -35,-198 -23,-33 -52,-50 -87,-50 -34,0 -62,15 -82,44 -26,37 -39,105 -39,204z"/>
  <path id="4" class="fil1" d="M6568 8427l160 -227 -148 -212 91 0 70 104c12,19 23,35 30,47 12,-17 23,-33 33,-48l74 -103 91 0 -150 212 159 227 -90 0 -91 -135 -21 -33 -117 168 -91 0z"/>
  <path id="5" class="fil1" d="M7301 8427l-75 0 0 -474c-18,17 -41,34 -70,51 -29,17 -55,30 -79,39l0 -72c42,-20 78,-44 110,-71 31,-28 53,-55 66,-81l48 0 0 608z"/>
  <path id="6" class="fil1" d="M7503 8287l72 -6c6,33 17,58 34,73 17,15 39,22 66,22 23,0 43,-5 60,-15 18,-11 32,-25 43,-42 10,-18 20,-42 27,-71 8,-30 11,-60 11,-91 0,-4 0,-9 0,-15 -15,23 -35,43 -61,57 -26,15 -54,23 -84,23 -50,0 -92,-19 -127,-55 -34,-36 -52,-84 -52,-144 0,-61 18,-111 55,-148 36,-38 81,-56 136,-56 39,0 75,10 108,31 32,22 57,52 74,91 17,39 25,96 25,171 0,77 -8,139 -25,185 -17,46 -42,80 -75,104 -33,24 -72,36 -116,36 -48,0 -87,-13 -117,-39 -29,-26 -48,-64 -54,-111zm304 -268c0,-42 -11,-76 -34,-101 -22,-25 -49,-38 -82,-38 -33,0 -62,14 -86,41 -24,27 -36,62 -36,105 0,38 11,69 34,93 23,25 52,37 86,37 35,0 63,-12 85,-37 22,-24 33,-57 33,-100z"/>
  <path id="7" class="fil1" d="M8354 8356l0 71 -402 0c0,-18 3,-35 9,-51 10,-28 27,-55 50,-81 22,-26 55,-57 97,-92 66,-54 110,-96 133,-128 24,-32 36,-61 36,-90 0,-29 -11,-54 -32,-74 -21,-20 -49,-31 -83,-31 -36,0 -65,11 -86,33 -22,21 -33,50 -33,88l-76 -7c5,-57 25,-101 59,-131 34,-30 80,-44 138,-44 58,0 104,16 138,48 34,32 51,72 51,120 0,24 -5,48 -15,72 -10,23 -27,48 -50,74 -23,26 -61,61 -114,106 -45,38 -74,63 -87,77 -12,13 -23,27 -31,40l298 0z"/>
  <path id="8" class="fil1" d="M8434 8128c0,-71 7,-129 22,-173 15,-44 37,-78 66,-101 29,-24 65,-35 109,-35 33,0 61,6 86,19 25,13 45,32 61,57 16,24 28,54 37,90 9,35 14,83 14,143 0,71 -8,129 -22,173 -15,43 -37,77 -66,101 -29,24 -65,35 -110,35 -58,0 -104,-20 -137,-62 -40,-51 -60,-133 -60,-247zm76 0c0,100 12,167 35,199 23,33 52,49 86,49 35,0 63,-16 87,-49 23,-33 35,-99 35,-199 0,-99 -12,-166 -35,-198 -23,-33 -53,-50 -87,-50 -35,0 -62,15 -82,44 -26,37 -39,105 -39,204z"/>
 </g>
</svg>
