<?xml version="1.0" encoding="UTF-8"?>
<!DOCTYPE svg PUBLIC "-//W3C//DTD SVG 1.1//EN" "http://www.w3.org/Graphics/SVG/1.1/DTD/svg11.dtd">
<!-- Creator: CorelDRAW X7 -->
<svg xmlns="http://www.w3.org/2000/svg" xml:space="preserve" width="3.80998cm" height="2.53998cm" version="1.1" style="shape-rendering:geometricPrecision; text-rendering:geometricPrecision; image-rendering:optimizeQuality; fill-rule:evenodd; clip-rule:evenodd"
viewBox="0 0 3810 2540"
 xmlns:xlink="http://www.w3.org/1999/xlink">
 <defs>
  <style type="text/css">
   <![CDATA[
    .fil0 {fill:#373940}
    .fil1 {fill:#999999;fill-rule:nonzero}
   ]]>
  </style>
 </defs>
 <g id="Layer_x0020_1">
  <metadata id="CorelCorpID_0Corel-Layer"/>
  <rect class="fil0" width="3810" height="2540"/>
  <path class="fil1" d="M1249 1414l0 -70 -126 0 0 -33 133 -188 29 0 0 188 39 0 0 33 -39 0 0 70 -36 0zm0 -103l0 -131 -91 131 91 0z"/>
  <path id="1" class="fil1" d="M1361 1337l37 -3c3,19 10,32 20,42 10,9 22,13 36,13 18,0 32,-6 44,-19 12,-13 18,-30 18,-52 0,-20 -6,-36 -17,-48 -11,-12 -26,-18 -45,-18 -11,0 -22,3 -31,8 -9,6 -16,12 -22,21l-33 -5 28 -150 144 0 0 34 -116 0 -15 79c17,-12 35,-18 54,-18 26,0 47,8 65,26 17,18 26,40 26,68 0,26 -8,49 -23,68 -19,24 -44,36 -77,36 -26,0 -48,-8 -64,-23 -17,-15 -27,-34 -29,-59z"/>
  <path id="2" class="fil1" d="M1587 1270c0,-34 4,-62 11,-83 7,-21 17,-37 31,-49 14,-11 32,-17 53,-17 16,0 29,3 41,10 12,6 22,15 29,27 8,12 14,26 18,43 5,17 7,40 7,69 0,34 -4,62 -11,83 -7,21 -17,37 -31,49 -14,11 -32,17 -53,17 -28,0 -50,-10 -66,-30 -19,-25 -29,-64 -29,-119zm37 0c0,48 5,80 17,96 11,15 25,23 41,23 16,0 30,-8 41,-23 12,-16 17,-48 17,-96 0,-48 -5,-80 -17,-95 -11,-16 -25,-24 -41,-24 -17,0 -30,7 -40,21 -12,18 -18,50 -18,98z"/>
  <path id="3" class="fil1" d="M1799 1414l77 -110 -72 -101 44 0 34 50c6,9 11,16 14,22 6,-8 12,-16 16,-23l36 -49 43 0 -71 101 76 110 -44 0 -43 -65 -10 -16 -57 81 -43 0z"/>
  <path id="4" class="fil1" d="M2017 1336l35 -4c5,20 12,35 21,44 10,8 22,13 37,13 16,0 31,-6 42,-18 12,-11 18,-26 18,-43 0,-16 -6,-30 -17,-41 -10,-10 -24,-16 -40,-16 -7,0 -16,2 -26,4l4 -31c3,0 5,1 6,1 15,0 29,-4 41,-12 12,-8 19,-20 19,-37 0,-13 -5,-24 -14,-32 -9,-9 -20,-13 -34,-13 -14,0 -26,4 -35,13 -9,9 -15,22 -18,40l-36 -7c5,-24 15,-43 30,-56 16,-13 35,-20 58,-20 16,0 30,4 44,11 13,6 23,16 31,27 7,12 10,25 10,38 0,12 -3,24 -10,34 -7,10 -17,19 -30,25 17,4 31,12 40,24 10,13 14,29 14,47 0,26 -9,47 -27,65 -19,18 -42,27 -71,27 -25,0 -46,-8 -63,-23 -17,-16 -27,-35 -29,-60z"/>
  <path id="5" class="fil1" d="M2243 1270c0,-34 3,-62 10,-83 8,-21 18,-37 32,-49 14,-11 31,-17 53,-17 15,0 29,3 41,10 12,6 21,15 29,27 7,12 13,26 18,43 4,17 6,40 6,69 0,34 -3,62 -10,83 -7,21 -18,37 -32,49 -13,11 -31,17 -52,17 -28,0 -50,-10 -66,-30 -20,-25 -29,-64 -29,-119zm36 0c0,48 6,80 17,96 11,15 25,23 42,23 16,0 30,-8 41,-23 11,-16 17,-48 17,-96 0,-48 -6,-80 -17,-95 -11,-16 -25,-24 -42,-24 -16,0 -29,7 -39,21 -12,18 -19,50 -19,98z"/>
  <path id="6" class="fil1" d="M2469 1270c0,-34 4,-62 11,-83 7,-21 17,-37 31,-49 14,-11 32,-17 53,-17 15,0 29,3 41,10 12,6 21,15 29,27 8,12 14,26 18,43 4,17 7,40 7,69 0,34 -4,62 -11,83 -7,21 -17,37 -31,49 -14,11 -32,17 -53,17 -28,0 -50,-10 -66,-30 -19,-25 -29,-64 -29,-119zm37 0c0,48 5,80 16,96 12,15 25,23 42,23 16,0 30,-8 41,-23 11,-16 17,-48 17,-96 0,-48 -6,-80 -17,-95 -11,-16 -25,-24 -42,-24 -16,0 -29,7 -39,21 -12,18 -18,50 -18,98z"/>
 </g>
</svg>
