<?xml version="1.0" encoding="UTF-8"?>
<!DOCTYPE svg PUBLIC "-//W3C//DTD SVG 1.1//EN" "http://www.w3.org/Graphics/SVG/1.1/DTD/svg11.dtd">
<!-- Creator: CorelDRAW X7 -->
<svg xmlns="http://www.w3.org/2000/svg" xml:space="preserve" width="6.50238cm" height="7.93326cm" version="1.1" style="shape-rendering:geometricPrecision; text-rendering:geometricPrecision; image-rendering:optimizeQuality; fill-rule:evenodd; clip-rule:evenodd"
viewBox="0 0 6502 7933"
 xmlns:xlink="http://www.w3.org/1999/xlink">
 <defs>
  <style type="text/css">
   <![CDATA[
    .fil0 {fill:#373940}
    .fil1 {fill:#999999;fill-rule:nonzero}
   ]]>
  </style>
 </defs>
 <g id="Layer_x0020_1">
  <metadata id="CorelCorpID_0Corel-Layer"/>
  <rect class="fil0" y="-2" width="6502" height="7937"/>
  <path class="fil1" d="M1674 4125l71 -6c7,34 18,58 35,73 17,16 39,23 66,23 23,0 43,-5 60,-16 18,-10 32,-24 43,-42 10,-17 20,-41 27,-71 8,-29 11,-60 11,-91 0,-3 0,-8 0,-15 -15,24 -35,43 -61,58 -26,15 -54,22 -84,22 -50,0 -92,-18 -127,-54 -34,-37 -52,-85 -52,-144 0,-62 18,-111 55,-149 36,-37 81,-56 136,-56 39,0 75,11 108,32 32,21 57,51 74,91 17,39 25,96 25,170 0,78 -8,139 -25,185 -17,46 -42,81 -75,105 -33,24 -72,36 -116,36 -48,0 -87,-13 -117,-39 -30,-27 -48,-64 -54,-112zm304 -267c0,-43 -11,-77 -34,-101 -22,-25 -49,-38 -82,-38 -33,0 -62,13 -86,40 -24,27 -36,62 -36,105 0,39 11,70 34,94 23,24 52,36 86,36 35,0 63,-12 85,-36 22,-24 33,-57 33,-100z"/>
  <path id="1" class="fil1" d="M2134 4105l75 -10c8,42 23,73 43,91 21,19 46,28 76,28 35,0 65,-12 89,-36 24,-24 36,-54 36,-90 0,-34 -12,-63 -34,-85 -22,-22 -51,-33 -85,-33 -14,0 -32,3 -53,8l8 -65c5,0 9,1 12,1 32,0 61,-9 86,-25 26,-17 38,-42 38,-76 0,-28 -9,-50 -27,-68 -19,-18 -43,-27 -72,-27 -29,0 -53,9 -72,28 -20,18 -32,46 -38,82l-74 -13c9,-50 30,-89 62,-117 32,-27 72,-41 120,-41 33,0 64,7 92,21 28,15 49,34 64,58 14,25 22,51 22,78 0,26 -7,50 -21,72 -14,21 -35,38 -63,51 36,8 64,25 84,51 19,26 29,59 29,98 0,53 -19,98 -58,135 -38,37 -87,55 -146,55 -53,0 -97,-16 -133,-48 -35,-31 -55,-72 -60,-123z"/>
  <path id="2" class="fil1" d="M2609 3738l0 -71 392 0 0 58c-38,41 -77,96 -114,164 -38,68 -68,138 -88,210 -15,51 -25,107 -29,167l-76 0c1,-48 10,-105 28,-173 18,-68 44,-133 77,-196 33,-63 69,-116 107,-159l-297 0z"/>
  <path id="3" class="fil1" d="M3046 4266l160 -228 -149 -211 92 0 69 103c13,20 23,36 31,48 12,-18 23,-34 33,-48l73 -103 91 0 -149 211 159 228 -90 0 -91 -136 -21 -32 -117 168 -91 0z"/>
  <path id="4" class="fil1" d="M3504 3738l0 -71 392 0 0 58c-39,41 -77,96 -115,164 -38,68 -67,138 -88,210 -15,51 -24,107 -29,167l-76 0c1,-48 10,-105 28,-173 18,-68 44,-133 77,-196 34,-63 69,-116 107,-159l-296 0z"/>
  <path id="5" class="fil1" d="M4357 3808l-73 6c-7,-29 -17,-51 -29,-64 -20,-21 -45,-32 -75,-32 -23,0 -45,7 -63,20 -23,17 -42,42 -55,75 -14,33 -21,79 -21,140 17,-27 39,-48 65,-61 26,-13 53,-20 82,-20 50,0 92,19 127,55 35,37 52,84 52,142 0,38 -8,73 -24,106 -17,33 -39,58 -68,75 -29,17 -61,26 -98,26 -62,0 -112,-23 -151,-68 -40,-46 -59,-121 -59,-226 0,-117 22,-202 65,-255 38,-47 89,-70 153,-70 48,0 87,14 117,40 31,27 49,64 55,111zm-305 262c0,25 6,50 17,73 11,24 26,41 45,54 20,12 40,18 62,18 32,0 59,-13 81,-38 23,-25 34,-60 34,-103 0,-42 -11,-75 -33,-99 -22,-25 -51,-37 -85,-37 -33,0 -62,12 -86,37 -23,24 -35,55 -35,95z"/>
  <path id="6" class="fil1" d="M4556 3937c-31,-11 -54,-27 -69,-48 -15,-21 -22,-46 -22,-75 0,-45 16,-82 47,-112 32,-30 74,-45 127,-45 52,0 95,16 127,46 32,31 49,68 49,113 0,28 -8,52 -23,73 -14,21 -36,37 -67,48 38,12 66,32 85,59 19,27 29,59 29,97 0,51 -18,95 -55,130 -37,35 -85,53 -144,53 -60,0 -108,-18 -145,-53 -36,-35 -55,-80 -55,-132 0,-40 10,-73 30,-99 20,-27 49,-45 86,-55zm-15 -126c0,29 9,52 27,70 19,18 43,28 73,28 28,0 52,-9 70,-27 18,-19 27,-41 27,-67 0,-27 -9,-50 -28,-69 -18,-19 -42,-28 -70,-28 -29,0 -53,9 -71,28 -19,18 -28,39 -28,65zm-25 280c0,21 5,42 15,62 10,20 25,35 45,46 20,11 42,16 64,16 36,0 65,-11 88,-34 23,-23 35,-52 35,-87 0,-36 -12,-66 -36,-89 -23,-24 -53,-35 -89,-35 -35,0 -64,11 -87,34 -23,23 -35,52 -35,87z"/>
 </g>
</svg>
