<?xml version="1.0" encoding="UTF-8"?>
<!DOCTYPE svg PUBLIC "-//W3C//DTD SVG 1.1//EN" "http://www.w3.org/Graphics/SVG/1.1/DTD/svg11.dtd">
<!-- Creator: CorelDRAW X7 -->
<svg xmlns="http://www.w3.org/2000/svg" xml:space="preserve" width="21.6747cm" height="12.192cm" version="1.1" style="shape-rendering:geometricPrecision; text-rendering:geometricPrecision; image-rendering:optimizeQuality; fill-rule:evenodd; clip-rule:evenodd"
viewBox="0 0 21675 12192"
 xmlns:xlink="http://www.w3.org/1999/xlink">
 <defs>
  <style type="text/css">
   <![CDATA[
    .str1 {stroke:#332C2B;stroke-width:7.62}
    .str0 {stroke:#332C2B;stroke-width:25.39;stroke-linejoin:round}
    .fil0 {fill:none}
    .fil8 {fill:#FEFEFE}
    .fil13 {fill:black}
    .fil17 {fill:#00CCFF}
    .fil6 {fill:#1A1A1A}
    .fil7 {fill:#1F1F1F}
    .fil3 {fill:#20232A}
    .fil18 {fill:#61DAFB}
    .fil4 {fill:#6666CC}
    .fil15 {fill:#6666FF}
    .fil16 {fill:#999999}
    .fil2 {fill:#999999}
    .fil5 {fill:#D4D4D4}
    .fil14 {fill:#E6E6E6}
    .fil1 {fill:#20232A;fill-opacity:0.439216}
    .fil12 {fill:url(#id4)}
    .fil9 {fill:url(#id5)}
    .fil10 {fill:url(#id6)}
    .fil11 {fill:url(#id7)}
   ]]>
  </style>
   <clipPath id="id0">
    <path d="M4064 4013c1150,0 2083,933 2083,2083 0,1150 -933,2083 -2083,2083 -1150,0 -2083,-933 -2083,-2083 0,-1150 933,-2083 2083,-2083z"/>
   </clipPath>
   <clipPath id="id1">
    <path d="M4064 4013c1150,0 2083,933 2083,2083 0,1150 -933,2083 -2083,2083 -1150,0 -2083,-933 -2083,-2083 0,-1150 933,-2083 2083,-2083z"/>
   </clipPath>
      <clipPath id="id2">
       <path d="M3063 4414l2139 0 0 1251 -2139 0 0 -1251z"/>
      </clipPath>
      <clipPath id="id3">
       <path d="M4064 4013c1150,0 2083,933 2083,2083 0,1150 -933,2083 -2083,2083 -1150,0 -2083,-933 -2083,-2083 0,-1150 933,-2083 2083,-2083z"/>
      </clipPath>
  <radialGradient id="id4" gradientUnits="userSpaceOnUse" gradientTransform="matrix(-0.999967 -0 -0 0.933624 8837 386)" cx="4418.35" cy="5818.28" r="60.64" fx="4418.35" fy="5818.28">
   <stop offset="0" style="stop-opacity:1; stop-color:#222222"/>
   <stop offset="1" style="stop-opacity:1; stop-color:#474140"/>
  </radialGradient>
  <radialGradient id="id5" gradientUnits="userSpaceOnUse" gradientTransform="matrix(1.00002 -0 1.42108E-014 0.96969 0 177)" cx="3738.16" cy="5824.08" r="103.9" fx="3738.16" fy="5824.08">
   <stop offset="0" style="stop-opacity:1; stop-color:#277D44"/>
   <stop offset="0.6" style="stop-opacity:1; stop-color:#4F9E5B"/>
   <stop offset="1" style="stop-opacity:1; stop-color:#76BF71"/>
  </radialGradient>
  <radialGradient id="id6" gradientUnits="userSpaceOnUse" gradientTransform="matrix(-0.999964 -0 -0 0.964291 8844 208)" cx="4422.03" cy="5824.04" r="106.69" fx="4422.03" fy="5824.04">
   <stop offset="0" style="stop-opacity:1; stop-color:#43B04D"/>
   <stop offset="1" style="stop-opacity:1; stop-color:#7FC37E"/>
  </radialGradient>
  <radialGradient id="id7" gradientUnits="userSpaceOnUse" gradientTransform="matrix(0.999962 -0 -0 0.938817 0 356)" cx="3734.31" cy="5818.47" r="56.78" fx="3734.31" fy="5818.47">
   <stop offset="0" style="stop-opacity:1; stop-color:#222222"/>
   <stop offset="1" style="stop-opacity:1; stop-color:#423B3B"/>
  </radialGradient>
 </defs>
 <g id="Layer_x0020_1">
  <metadata id="CorelCorpID_0Corel-Layer"/>
  <rect class="fil0" width="21675" height="12192"/>
  <g style="clip-path:url(#id0)">
   <polygon class="fil1" points="1981,4013 6147,4013 6147,8179 1981,8179 "/>
  </g>
  <g style="clip-path:url(#id1)">
   <g id="_2265485273616">
    <g>
     <path id="1" class="fil2" d="M3507 4879l1 -1 174 -349 -14 138 662 -142 -134 146c451,-7 751,278 953,748l-267 -68c12,136 4,278 -14,407 0,7 0,15 0,22 220,83 176,434 -90,461 -73,288 -261,391 -514,391l1 45 137 56c249,-7 449,239 547,595l-199 48 -16 839 -1334 -10 0 -623 0 -192 -158 -123c16,-51 34,-104 56,-161 144,-270 231,-371 444,-367l132 -71 1 -36c-284,3 -432,-150 -497,-436 -260,-41 -328,-369 -58,-487 -5,-30 -2,-160 -23,-141l-147 -171 86 -101 -101 -193 183 -71 -49 -131 238 -22z"/>
     <path class="fil3" d="M4595 8804l-132 2 0 112 400 -2c9,-22 -114,-91 -152,-101 -38,-11 -78,-7 -116,-11z"/>
     <path class="fil4" d="M3400 8205l1334 10 -158 539 34 0 3 50 -158 2 4 -52 42 -2c-15,-308 -186,-406 -435,-398 -249,7 -438,134 -427,388l39 22 0 37 -171 2 -3 -45 49 -13 -153 -540z"/>
     <path class="fil3" d="M3537 8799l131 2 1 112 -400 -3c-10,-22 114,-90 152,-101 38,-10 77,-7 116,-10z"/>
     <path class="fil5" d="M3400 8111c117,-4 150,-277 21,-311l-21 311z"/>
     <path class="fil5" d="M4735 8054c-116,-4 -127,-247 2,-281l-2 281z"/>
     <path class="fil6" d="M3507 4879l1 -1 174 -349 -14 138 662 -142 -134 146c451,-7 751,278 953,748l-267 -68c2,17 4,60 6,116l-1129 -260 -462 361 -147 -171 86 -101 -101 -193 183 -71 -49 -131 238 -22z"/>
     <g>
     </g>
     <g style="clip-path:url(#id2)">
      <image x="3063" y="4414" width="2139" height="1251" xlink:href="bg-5_Images\bg-5_ImgID1.png"/>
     </g>
     <g style="clip-path:url(#id3)">
     </g>
     <path class="fil7" d="M3802 5156l-504 411 -81 -148 85 -136 -149 -161 165 -90 -49 -131c146,-1 266,6 304,44 -25,-50 39,-253 127,-466l-1 181 631 -135 -123 146c491,-23 797,399 922,743 -812,-507 -64,-29 -193,72l-1134 -330z"/>
     <path class="fil0 str0" d="M3621 5616c48,-50 105,-61 167,-50"/>
     <path class="fil0 str0" d="M4506 5557c-48,-50 -105,-62 -168,-50"/>
     <path class="fil8" d="M3735 5675c97,0 171,70 171,163 0,93 -75,135 -172,135 -97,0 -162,-40 -162,-133 0,-93 67,-165 163,-165z"/>
     <path class="fil8" d="M4430 5680c-97,0 -170,70 -170,163 0,93 75,134 172,134 97,0 161,-39 161,-132 0,-93 -66,-165 -163,-165z"/>
     <path class="fil9" d="M3737 5723c65,0 105,47 105,110 0,63 -41,92 -107,92 -65,0 -101,-33 -101,-96 0,-63 37,-106 103,-106z"/>
     <path class="fil10" d="M4429 5722c-58,-9 -114,45 -114,111 0,67 58,96 115,94 57,-3 93,-39 98,-91 6,-51 -42,-104 -99,-114z"/>
     <path class="fil11 str1" d="M3738 5765c38,0 57,41 52,64 -5,24 -18,43 -48,43 -29,-1 -64,-11 -64,-47 0,-37 21,-60 60,-60z"/>
     <path class="fil12 str1" d="M4428 5762c-44,0 -74,40 -70,67 4,27 38,53 70,44 32,-9 44,-22 50,-51 6,-29 -7,-60 -50,-60z"/>
     <path class="fil13" d="M4559 6245c-179,290 -741,329 -928,-3 325,54 620,53 928,3z"/>
     <path class="fil14" d="M4544 6258c-174,267 -717,304 -897,-3 333,57 616,55 897,3z"/>
     <path class="fil8" d="M4544 6258c-174,267 -717,304 -897,-3 341,108 622,97 897,3z"/>
     <path class="fil15" d="M4264 6632l1 45 137 56c249,-7 520,209 619,565l-271 78 -13 312 -3 527 -1334 -10 0 -623 0 -192 -225 -168c99,-294 294,-518 567,-483l132 -71 8 165 55 194 0 1182 264 2 1 -1174 61 -209 1 -196z"/>
     <path class="fil16" d="M3387 7347l-178 -93c-74,123 -48,375 15,576 -18,89 -4,171 86,226 22,28 19,94 68,89 49,-5 23,-12 37,-24 25,10 39,48 85,25 46,-23 -13,-92 -15,-141 29,-5 85,12 97,-29 13,-41 -108,-162 -181,-214l-14 -415z"/>
     <path class="fil17" d="M3937 7027c-49,-133 -72,-254 -63,-359 -153,37 -170,141 -188,315l251 44z"/>
     <path class="fil17" d="M4202 7037c50,-133 72,-254 63,-360 153,38 170,142 188,316l-251 44z"/>
     <polygon class="fil17" points="3133,7197 3218,7112 3454,7298 3400,7390 "/>
     <polygon class="fil18" points="5053,7289 4983,7187 4730,7272 4750,7376 "/>
     <path class="fil17" d="M3400 8205l91 1c22,87 7,148 -37,189l-54 -190z"/>
     <path class="fil17" d="M4734 8215l-90 1c-23,87 -8,148 37,189l53 -190z"/>
     <path class="fil16" d="M4750 7376l199 -48c42,99 -5,284 -51,489 -1,109 -6,172 -86,223 -32,40 -99,41 -165,5 -42,-22 1,-26 4,-72 -27,-5 -23,7 -34,-31 -10,-38 50,-125 118,-193l15 -373z"/>
    </g>
   </g>
  </g>
  <path class="fil0" d="M4064 4013c1150,0 2083,933 2083,2083 0,1150 -933,2083 -2083,2083 -1150,0 -2083,-933 -2083,-2083 0,-1150 933,-2083 2083,-2083z"/>
 </g>
</svg>
