<?xml version="1.0" encoding="UTF-8"?>
<!DOCTYPE svg PUBLIC "-//W3C//DTD SVG 1.1//EN" "http://www.w3.org/Graphics/SVG/1.1/DTD/svg11.dtd">
<!-- Creator: CorelDRAW X7 -->
<svg xmlns="http://www.w3.org/2000/svg" xml:space="preserve" width="7.93326cm" height="6.50238cm" version="1.1" style="shape-rendering:geometricPrecision; text-rendering:geometricPrecision; image-rendering:optimizeQuality; fill-rule:evenodd; clip-rule:evenodd"
viewBox="0 0 7933 6502"
 xmlns:xlink="http://www.w3.org/1999/xlink">
 <defs>
  <style type="text/css">
   <![CDATA[
    .fil0 {fill:none}
    .fil13 {fill:#0764BD}
    .fil2 {fill:#0A9AD9}
    .fil4 {fill:#0B9DDA}
    .fil11 {fill:#24A7DE}
    .fil12 {fill:#333333}
    .fil1 {fill:#3F4B5E}
    .fil3 {fill:#535461}
    .fil10 {fill:#EDEEF9}
    .fil9 {fill:#FDA57D}
    .fil6 {fill:black;fill-opacity:0.101961}
    .fil5 {fill:white;fill-opacity:0.101961}
    .fil14 {fill:black;fill-rule:nonzero;fill-opacity:0.101961}
    .fil8 {fill:url(#id0)}
    .fil7 {fill:url(#id1)}
   ]]>
  </style>
  <linearGradient id="id0" gradientUnits="userSpaceOnUse" x1="3846.62" y1="5849.28" x2="3846.62" y2="713.75">
   <stop offset="0" style="stop-opacity:0.25098; stop-color:gray"/>
   <stop offset="0.541176" style="stop-opacity:0.121569; stop-color:gray"/>
   <stop offset="1" style="stop-opacity:0.101961; stop-color:gray"/>
  </linearGradient>
  <linearGradient id="id1" gradientUnits="userSpaceOnUse" xlink:href="#id0" x1="4724.72" y1="1809.76" x2="4724.72" y2="1124.19">
  </linearGradient>
 </defs>
 <g id="Layer_x0020_1">
  <metadata id="CorelCorpID_0Corel-Layer"/>
  <rect class="fil0" width="7933" height="6502"/>
  <rect id="canvas_background" class="fil0" x="2932" y="240" width="4442" height="3068"/>
  <rect id="svg_1" class="fil1" x="3978" y="377" width="3389" height="5015"/>
  <polygon id="svg_2" class="fil2" points="4901,5522 7367,5392 7367,377 4901,248 "/>
  <circle id="svg_3" class="fil3" cx="5108" cy="3125" r="31"/>
  <polygon id="svg_4" class="fil3" points="5108,3130 5086,3166 5065,3203 5108,3203 5150,3203 5129,3166 "/>
  <polygon id="svg_5" class="fil4" points="4795,5522 4946,5521 4940,248 4795,248 "/>
  <polygon id="svg_7" class="fil5" points="4793,5521 4946,5521 4938,247 4793,247 "/>
  <path id="svg_8" class="fil6" d="M5008 2904c0,-55 45,-99 100,-99 54,0 99,44 99,99 0,55 -45,99 -99,99 -55,0 -100,-44 -100,-99z"/>
  <circle id="svg_9" class="fil3" cx="5108" cy="2889" r="99"/>
  <path id="svg_10" class="fil7" d="M4726 1755l0 55 -231 -146 25 -31 11 7 179 -262 0 -152 68 7 0 -25c179,-206 197,25 160,91 -37,67 -105,116 -105,116 -38,32 -104,272 -120,333l13 7 0 0z"/>
  <path id="svg_11" class="fil8" d="M3228 1634l31 -22 2 0 28 -85 11 1 35 -71c-30,-16 -58,-36 -82,-61 -55,-54 -106,-148 -94,-307 3,-33 -51,-119 111,-163 10,-94 79,-172 171,-194 49,-12 99,-18 149,-18 15,0 29,0 43,1 125,11 234,102 234,228 0,0 38,11 40,135l-5 0c7,27 10,56 10,85 0,163 -111,304 -269,344l-2 12c-2,2 -4,3 -6,4l-23 60 74 44 148 5c68,2 136,17 199,42 136,55 383,107 383,107l79 -112 231 159 -152 232c-24,18 -51,33 -79,45l0 0 0 0 -1 0 -7 3c-38,14 -77,25 -116,32 -92,18 -229,32 -401,6l1 0 -4 -1 -52 1046 -3 0 24 179c244,304 310,1185 310,1185l-359 1035c6,29 34,93 144,138 147,60 -105,103 -105,103l-229 -70c-19,38 -125,88 -125,88l-456 -12 0 -225 6 0c0,0 -42,-407 -12,-492 31,-85 0,-498 0,-498l-24 -881c-85,-170 -85,-315 -18,-455 20,-43 33,-88 38,-135 -18,-43 -26,-114 -8,-230 55,-344 -121,-689 -121,-689l0 0c-7,-35 -10,-71 -10,-107 0,-197 98,-381 261,-491l0 0zm306 3513l-207 -431 0 413c-9,759 97,575 207,18z"/>
  <path id="svg_12" class="fil9" d="M4680 1307l0 146 -173 255 173 113c0,0 78,-298 119,-333 0,0 66,-47 101,-111 36,-64 18,-286 -154,-87l0 23 -66 -6 0 0z"/>
  <path id="svg_13" class="fil9" d="M3297 1655l69 -137c4,-9 12,-14 21,-14l261 -14c0,0 1,0 1,0 14,0 26,11 26,25 0,4 -1,7 -2,10l-67 174c-4,10 -13,16 -24,16 -1,0 -2,0 -2,0l-263 -23c-13,-2 -23,-13 -23,-26 0,-4 1,-7 3,-11l0 0z"/>
  <polygon id="svg_14" class="fil10" points="3316,1596 3272,1726 3727,1710 3552,1605 "/>
  <polygon id="svg_15" class="fil10" points="4475,1727 4498,1698 4696,1815 4696,1867 "/>
  <path id="svg_16" class="fil11" d="M3134 3018c0,0 33,133 -31,268 -64,134 -64,274 18,437l23 847c0,0 29,397 0,478 -29,82 11,473 11,473l327 0 0 -263 111 -776 0 -397 199 415 -228 957 298 122 373 -1073c0,0 -64,-847 -297,-1139l-44 -318 -760 -31 0 0z"/>
  <path id="svg_17" class="fil12" d="M3150 5737l0 -216 332 0c0,0 24,88 175,105 152,18 -70,123 -70,123l-437 -12 0 0z"/>
  <path id="svg_18" class="fil12" d="M3509 5603l58 -208 320 89c0,0 -1,90 141,148 141,57 -100,99 -100,99l-419 -128 0 0z"/>
  <path id="svg_19" class="fil6" d="M3894 3067l-760 -31c6,29 9,58 9,87 0,17 -2,34 -4,51 35,82 110,59 110,59l665 -20 -20 -146 0 0z"/>
  <path id="svg_20" class="fil13" d="M3287 1678l-31 20c-156,106 -250,283 -250,472 0,35 3,69 9,103l0 0c0,0 169,331 117,662 -53,332 116,281 116,281l669 -21 49 -1005c0,0 403,58 584,-82l146 -223 -222 -153 -76 108c0,0 -237,-50 -368,-103 -61,-25 -125,-39 -191,-41l-552 -18 0 0z"/>
  <path id="svg_21" class="fil6" d="M3293 3294c0,0 -41,205 192,543m-192 -543l0 0 0 0z"/>
  <path id="svg_22" class="fil6" d="M3970 2191c0,0 280,-93 402,-93 123,0 102,53 102,53 0,0 -195,87 -504,40l0 0z"/>
  <path id="svg_23" class="fil6" d="M3652 1502l-112 13c-3,1 -6,5 -8,12 24,44 55,70 88,70 12,0 24,-3 34,-9l9 -52c3,-17 -3,-35 -11,-34l0 0z"/>
  <circle id="svg_24" class="fil9" cx="3574" cy="1245" r="340"/>
  <path id="svg_25" class="fil6" d="M3864 1053l0 0 -17 15c-13,11 -20,27 -20,44 0,23 15,45 37,54l0 0c0,0 -153,153 -174,181 -21,28 3,103 3,103 0,0 68,124 -287,95 0,0 -234,-49 -209,-365 3,-31 -50,-113 106,-156l0 0c10,-91 76,-165 165,-186 47,-12 95,-18 143,-18 14,0 28,0 41,1 120,11 212,111 212,231 0,0 0,0 0,1l0 0z"/>
  <path id="svg_26" class="fil1" d="M3871 1034l0 0c0,0 36,11 38,130l-51 -4c0,0 -119,318 -107,277 46,-153 -45,-124 -67,-96 -22,28 4,103 4,103 0,0 67,124 -288,96 0,0 -234,-50 -209,-366 3,-31 -49,-113 107,-156l0 0c9,-90 75,-165 164,-186 47,-12 95,-18 143,-18 14,0 28,1 41,2 120,10 225,98 225,218l0 0z"/>
  <g>
   <polygon id="svg_27" class="fil14" points="6974,5416 6953,5416 6953,370 6974,370 "/>
  </g>
  <g>
   <polygon id="svg_28" class="fil14" points="6539,5431 6518,5431 6518,340 6539,340 "/>
  </g>
  <g>
   <polygon id="svg_29" class="fil14" points="6104,5460 6083,5460 6083,317 6104,317 "/>
  </g>
  <g>
   <polygon id="svg_30" class="fil14" points="5669,5492 5648,5492 5648,294 5669,294 "/>
  </g>
  <g>
   <polygon id="svg_31" class="fil14" points="5234,5499 5213,5499 5213,271 5234,271 "/>
  </g>
 </g>
</svg>
