<?xml version="1.0" encoding="UTF-8"?>
<!DOCTYPE svg PUBLIC "-//W3C//DTD SVG 1.1//EN" "http://www.w3.org/Graphics/SVG/1.1/DTD/svg11.dtd">
<!-- Creator: CorelDRAW X7 -->
<svg xmlns="http://www.w3.org/2000/svg" xml:space="preserve" width="21.6747cm" height="12.192cm" version="1.1" style="shape-rendering:geometricPrecision; text-rendering:geometricPrecision; image-rendering:optimizeQuality; fill-rule:evenodd; clip-rule:evenodd"
viewBox="0 0 21675 12192"
 xmlns:xlink="http://www.w3.org/1999/xlink">
 <defs>
  <style type="text/css">
   <![CDATA[
    .str0 {stroke:#333333;stroke-width:20}
    .fil1 {fill:none}
    .fil2 {fill:#1C1D26}
    .fil0 {fill:#1E1F29}
    .fil13 {fill:#666666;fill-rule:nonzero}
    .fil11 {fill:gray;fill-rule:nonzero}
    .fil12 {fill:#999999;fill-rule:nonzero}
    .fil10 {fill:#666666}
    .fil8 {fill:url(#id0)}
    .fil6 {fill:url(#id1)}
    .fil7 {fill:url(#id2)}
    .fil5 {fill:url(#id3)}
    .fil3 {fill:url(#id4)}
    .fil4 {fill:url(#id5)}
    .fil9 {fill:url(#id6)}
   ]]>
  </style>
  <linearGradient id="id0" gradientUnits="userSpaceOnUse" x1="6505.06" y1="2976.23" x2="6562.38" y2="2948.26">
   <stop offset="0" style="stop-opacity:1; stop-color:#07D6D6"/>
   <stop offset="0.419608" style="stop-opacity:1; stop-color:#0792C4"/>
   <stop offset="1" style="stop-opacity:1; stop-color:#064DB2"/>
  </linearGradient>
  <linearGradient id="id1" gradientUnits="userSpaceOnUse" xlink:href="#id0" x1="12834.6" y1="6800.08" x2="12890.9" y2="6772.65">
  </linearGradient>
  <linearGradient id="id2" gradientUnits="userSpaceOnUse" xlink:href="#id0" x1="15062.6" y1="5442.72" x2="15138.4" y2="5405.77">
  </linearGradient>
  <linearGradient id="id3" gradientUnits="userSpaceOnUse" xlink:href="#id0" x1="5961.03" y1="5970.69" x2="6046.78" y2="5928.87">
  </linearGradient>
  <linearGradient id="id4" gradientUnits="userSpaceOnUse" xlink:href="#id0" x1="6628.38" y1="6100.03" x2="6967.26" y2="5799.21">
  </linearGradient>
  <linearGradient id="id5" gradientUnits="userSpaceOnUse" xlink:href="#id0" x1="14617" y1="5677.28" x2="14905.7" y2="6041.16">
  </linearGradient>
  <linearGradient id="id6" gradientUnits="userSpaceOnUse" xlink:href="#id0" x1="11104.8" y1="3377.51" x2="11072.5" y2="2158.23">
  </linearGradient>
 </defs>
 <g id="Layer_x0020_1">
  <metadata id="CorelCorpID_0Corel-Layer"/>
  <rect class="fil0" width="21675" height="12192"/>
  <path class="fil1 str0" d="M3778 8436c671,1282 5507,603 6433,683 1116,95 4258,1135 5545,-77 2727,-2565 -1422,-6296 -5136,-6293 -3550,3 -8021,3432 -6842,5687z"/>
  <path class="fil1 str0" d="M4877 8213c256,1377 3917,601 5485,748 1569,147 4452,1061 5081,-359 821,-1854 -1558,-4496 -4699,-4657 -3283,-168 -6189,2540 -5867,4268z"/>
  <path class="fil1 str0" d="M5556 7832c-419,1538 3121,788 4690,934 1568,147 3380,936 4504,-141 624,-597 -31,-1772 -613,-2427 -699,-788 -2252,-1554 -3305,-1575 -2175,-44 -4698,1090 -5276,3209z"/>
  <path class="fil1 str0" d="M6451 7735c-558,1401 2251,746 3819,893 1569,146 3110,758 3747,-295 721,-1190 -1961,-3188 -4176,-2889 -1419,191 -2773,742 -3390,2291z"/>
  <g id="_1509341185440">
   <circle class="fil2" transform="matrix(0.403179 -0.109818 0.109818 0.403179 6799.61 5943.91)" r="559"/>
   <path class="fil3" d="M6872 5722c18,6 35,14 51,24 -99,101 -215,195 -340,286 -3,-9 -6,-18 -9,-27 -3,-12 -5,-25 -7,-37 131,-98 230,-178 305,-246zm123 94c10,14 18,30 24,47 -97,100 -211,194 -333,285 -19,-11 -36,-24 -52,-39 164,-120 278,-215 361,-293zm33 175c-17,83 -79,154 -167,178 -21,6 -41,9 -62,8 94,-71 168,-132 229,-186zm-433 -160c28,-50 74,-90 133,-109 -43,37 -87,73 -133,109z"/>
  </g>
  <g id="_1509341185056">
   <circle class="fil2" transform="matrix(0.0895763 0.408154 -0.408154 0.0895763 14765.4 5862.77)" r="559"/>
   <path class="fil4" d="M14983 5947c-6,17 -15,34 -26,49 -96,-104 -184,-224 -269,-354 9,-3 18,-5 27,-7 13,-3 26,-5 38,-5 91,135 166,237 230,317zm-99 117c-16,9 -32,16 -49,22 -95,-102 -183,-220 -267,-347 11,-18 25,-35 41,-49 112,169 201,287 275,374zm-177 25c-83,-22 -150,-87 -170,-176 -4,-21 -6,-42 -5,-62 66,97 124,174 175,238zm181 -425c49,30 87,79 103,138 -35,-44 -69,-90 -103,-138z"/>
  </g>
  <circle class="fil5" cx="6004" cy="5950" r="48"/>
  <circle class="fil6" cx="12863" cy="6786" r="32"/>
  <circle class="fil7" cx="15101" cy="5424" r="43"/>
  <circle class="fil8" cx="6534" cy="2962" r="32"/>
  <g id="_1509341184032">
   <circle class="fil2" transform="matrix(0.452344 -0.992422 0.992425 0.452342 11088.7 2767.22)" r="559"/>
   <path class="fil9" d="M10765 2251c41,-26 86,-47 132,-62 37,367 34,756 8,1159 -24,-7 -46,-16 -69,-26 -31,-14 -60,-31 -87,-49 23,-426 26,-756 16,-1022zm392 -89c46,5 91,15 136,31 39,362 38,746 14,1143 -52,20 -107,33 -163,38 31,-529 32,-915 13,-1212zm408 225c138,174 177,417 78,633 -23,51 -52,97 -86,138 13,-306 15,-559 8,-771zm-1044 603c-55,-140 -58,-300 2,-449 4,147 3,297 -2,449z"/>
  </g>
  <path class="fil10" d="M10505 6726l-247 143 -247 -143 0 -285 247 -143 247 143 0 285zm61 36l0 -357 -308 -178 -309 178 0 357 309 178 308 -178z"/>
  <polygon class="fil11" points="9747,6636 9747,6620 9680,6577 9680,6576 9747,6533 9747,6516 9664,6570 9664,6583 "/>
  <polygon id="1" class="fil11" points="10780,6636 10863,6583 10863,6570 10780,6516 10780,6533 10847,6576 10847,6577 10780,6620 "/>
  <polygon id="2" class="fil11" points="10663,6675 10677,6675 10738,6521 10724,6521 "/>
  <path id="3" class="fil12" d="M9770 6646l51 -126 20 0 54 126 -20 0 -16 -38 -56 0 -14 38 -19 0zm39 -51l45 0 -14 -35c-4,-11 -7,-20 -10,-27 -1,8 -4,17 -7,25l-14 37z"/>
  <polygon id="4" class="fil12" points="9908,6646 9908,6520 9926,6520 9996,6619 9996,6520 10013,6520 10013,6646 9995,6646 9925,6547 9925,6646 "/>
  <path id="5" class="fil12" d="M10042 6646l0 -126 46 0c10,0 18,1 23,2 8,2 14,5 20,9 7,6 12,13 15,22 4,8 6,18 6,30 0,9 -1,18 -4,25 -2,8 -5,14 -9,19 -4,4 -8,8 -12,11 -4,3 -10,5 -16,6 -6,2 -13,2 -21,2l-48 0zm18 -14l28 0c9,0 16,-1 21,-3 4,-1 8,-3 11,-6 5,-4 8,-10 10,-16 2,-7 4,-15 4,-25 0,-13 -3,-23 -7,-30 -5,-7 -10,-12 -17,-14 -5,-2 -12,-3 -22,-3l-28 0 0 97z"/>
  <polygon id="6" class="fil12" points="10179,6646 10179,6520 10196,6520 10196,6646 "/>
  <path id="7" class="fil12" d="M10278 6520l49 0c11,0 19,1 25,3 8,2 14,6 20,11 5,6 10,13 12,21 3,8 5,18 5,30 0,10 -2,19 -4,26 -4,10 -8,17 -14,23 -5,4 -11,7 -19,10 -6,2 -14,2 -24,2l-50 0 0 -126zm27 22l0 83 20 0c7,0 12,0 16,-1 4,-1 8,-3 11,-5 2,-3 5,-7 7,-13 1,-5 2,-13 2,-23 0,-9 -1,-17 -2,-22 -2,-5 -5,-9 -8,-12 -3,-3 -7,-5 -12,-6 -4,-1 -11,-1 -22,-1l-12 0z"/>
  <polygon id="8" class="fil12" points="10412,6646 10412,6520 10510,6520 10510,6542 10438,6542 10438,6570 10505,6570 10505,6591 10438,6591 10438,6625 10512,6625 10512,6646 "/>
  <polygon id="9" class="fil12" points="10569,6646 10522,6520 10551,6520 10584,6614 10617,6520 10645,6520 10598,6646 "/>
  <path class="fil13" d="M7532 7552l0 -126 43 0c10,0 18,1 23,2 7,1 13,4 18,9 7,5 12,13 15,21 4,9 5,19 5,30 0,10 -1,19 -3,26 -2,7 -5,13 -9,18 -3,5 -7,9 -11,12 -4,3 -9,5 -15,6 -6,2 -13,2 -21,2l-45 0zm17 -15l26 0c9,0 15,0 20,-2 5,-1 9,-4 11,-6 4,-4 7,-10 10,-16 2,-7 3,-15 3,-25 0,-13 -2,-23 -7,-30 -4,-7 -9,-12 -15,-15 -5,-1 -12,-2 -22,-2l-26 0 0 96z"/>
  <path id="1" class="fil13" d="M7720 7523l16 2c-3,9 -7,16 -14,21 -7,6 -16,8 -26,8 -14,0 -24,-4 -32,-12 -8,-8 -12,-20 -12,-35 0,-15 4,-27 12,-35 8,-9 18,-13 31,-13 12,0 22,4 30,12 7,9 11,20 11,35 0,1 0,3 0,4l-68 0c1,10 3,18 9,24 5,5 11,8 19,8 5,0 10,-2 14,-5 4,-3 7,-8 10,-14zm-51 -25l51 0c-1,-8 -3,-14 -6,-18 -5,-6 -11,-9 -19,-9 -7,0 -13,3 -18,8 -5,4 -8,11 -8,19z"/>
  <path id="2" class="fil13" d="M7749 7525l15 -3c1,7 4,11 8,15 4,3 9,5 16,5 7,0 13,-2 16,-5 4,-3 5,-6 5,-10 0,-4 -1,-6 -4,-8 -3,-2 -8,-3 -16,-6 -12,-2 -19,-5 -24,-7 -4,-2 -8,-5 -10,-9 -2,-3 -3,-7 -3,-12 0,-4 1,-8 3,-11 1,-4 4,-7 7,-9 3,-2 6,-3 10,-4 4,-2 9,-2 13,-2 8,0 14,1 19,3 6,2 10,5 12,8 3,4 5,9 6,15l-16 2c0,-5 -2,-9 -5,-12 -4,-2 -8,-4 -14,-4 -8,0 -13,2 -16,4 -3,2 -4,5 -4,8 0,2 0,4 2,6 1,1 3,3 6,4 1,0 6,2 13,4 11,3 19,5 23,7 5,2 8,5 10,8 3,4 4,8 4,13 0,5 -1,10 -4,15 -3,4 -8,8 -13,10 -6,3 -13,4 -20,4 -12,0 -21,-2 -27,-7 -6,-5 -10,-12 -12,-22z"/>
  <path id="3" class="fil13" d="M7844 7444l0 -18 15 0 0 18 -15 0zm0 108l0 -91 15 0 0 91 -15 0z"/>
  <path id="4" class="fil13" d="M7880 7560l15 2c0,5 2,8 5,10 4,3 9,4 16,4 7,0 13,-1 17,-4 3,-3 6,-7 7,-12 1,-3 2,-10 2,-20 -7,8 -16,12 -26,12 -12,0 -22,-4 -29,-13 -7,-9 -10,-20 -10,-33 0,-9 1,-17 4,-24 4,-7 8,-13 14,-17 6,-4 13,-6 21,-6 11,0 20,4 27,13l0 -11 14 0 0 79c0,14 -1,24 -4,30 -3,6 -8,11 -14,14 -6,4 -14,5 -23,5 -11,0 -20,-2 -26,-7 -7,-5 -10,-12 -10,-22zm13 -55c0,12 2,21 7,26 5,6 10,8 18,8 7,0 13,-2 18,-8 4,-5 7,-14 7,-26 0,-11 -3,-19 -8,-25 -5,-6 -11,-8 -18,-8 -7,0 -12,2 -17,8 -5,6 -7,14 -7,25z"/>
  <path id="5" class="fil13" d="M7981 7552l0 -91 14 0 0 13c6,-10 16,-15 29,-15 5,0 10,1 15,3 5,2 8,4 10,8 3,3 4,7 5,11 1,3 1,8 1,15l0 56 -15 0 0 -55c0,-7 -1,-11 -2,-15 -1,-3 -4,-5 -7,-7 -3,-2 -6,-3 -10,-3 -7,0 -13,2 -17,6 -5,5 -8,13 -8,24l0 50 -15 0z"/>
  <path id="6" class="fil13" d="M8141 7523l16 2c-2,9 -7,16 -14,21 -6,6 -15,8 -26,8 -13,0 -24,-4 -31,-12 -8,-8 -12,-20 -12,-35 0,-15 4,-27 12,-35 8,-9 18,-13 30,-13 13,0 23,4 30,12 8,9 12,20 12,35 0,1 0,3 0,4l-68 0c0,10 3,18 8,24 5,5 12,8 19,8 6,0 11,-2 15,-5 4,-3 7,-8 9,-14zm-50 -25l51 0c-1,-8 -3,-14 -6,-18 -5,-6 -12,-9 -19,-9 -8,0 -14,3 -18,8 -5,4 -8,11 -8,19z"/>
  <path id="7" class="fil13" d="M8236 7552l0 -11c-6,9 -14,13 -25,13 -8,0 -14,-2 -21,-6 -6,-4 -10,-9 -14,-17 -3,-7 -5,-15 -5,-24 0,-10 2,-18 5,-25 3,-8 7,-13 13,-17 7,-4 13,-6 21,-6 5,0 10,1 15,3 4,3 7,6 10,9l0 -45 16 0 0 126 -15 0zm-49 -45c0,11 3,20 8,26 4,6 10,9 17,9 7,0 13,-3 17,-9 5,-5 7,-14 7,-25 0,-13 -2,-22 -7,-28 -5,-5 -11,-8 -18,-8 -7,0 -12,2 -17,8 -5,6 -7,15 -7,27z"/>
  <path id="8" class="fil13" d="M8341 7552l-28 -91 16 0 15 53 5 19c0,-1 2,-7 5,-19l14 -53 16 0 14 53 4 17 6 -17 15 -53 16 0 -29 91 -16 0 -15 -54 -3 -16 -19 70 -16 0z"/>
  <path id="9" class="fil13" d="M8452 7444l0 -18 15 0 0 18 -15 0zm0 108l0 -91 15 0 0 91 -15 0z"/>
  <path id="10" class="fil13" d="M8524 7538l3 14c-5,1 -9,2 -12,2 -6,0 -10,-1 -13,-3 -3,-2 -6,-4 -7,-7 -1,-3 -2,-9 -2,-19l0 -52 -11 0 0 -12 11 0 0 -23 16 -9 0 32 15 0 0 12 -15 0 0 53c0,5 0,8 1,9 0,1 1,2 2,3 2,1 3,1 6,1 1,0 4,0 6,-1z"/>
  <path id="11" class="fil13" d="M8540 7552l0 -126 15 0 0 45c7,-8 17,-12 28,-12 6,0 12,1 17,4 5,2 9,6 11,11 2,5 3,11 3,20l0 58 -16 0 0 -58c0,-7 -1,-13 -5,-17 -3,-3 -8,-5 -14,-5 -4,0 -9,1 -13,4 -4,2 -6,5 -8,9 -2,5 -3,10 -3,17l0 50 -15 0z"/>
  <polygon id="12" class="fil13" points="8686,7552 8686,7426 8702,7426 8702,7552 "/>
  <path id="13" class="fil13" d="M8720 7507c0,-17 5,-30 14,-38 8,-7 18,-10 29,-10 13,0 23,4 31,12 8,8 12,20 12,34 0,12 -2,21 -5,28 -4,7 -9,12 -16,16 -7,3 -14,5 -22,5 -13,0 -23,-4 -31,-12 -8,-8 -12,-20 -12,-35zm16 0c0,11 3,20 8,26 5,6 11,9 19,9 8,0 14,-3 19,-9 5,-6 8,-15 8,-27 0,-11 -3,-20 -8,-26 -5,-5 -11,-8 -19,-8 -8,0 -14,3 -19,8 -5,6 -8,15 -8,27z"/>
  <path id="14" class="fil13" d="M8849 7552l-34 -91 16 0 20 55c2,5 4,12 6,18 1,-5 3,-11 5,-17l21 -56 16 0 -35 91 -15 0z"/>
  <path id="15" class="fil13" d="M8975 7523l16 2c-3,9 -7,16 -14,21 -7,6 -16,8 -26,8 -14,0 -24,-4 -32,-12 -8,-8 -12,-20 -12,-35 0,-15 4,-27 12,-35 8,-9 18,-13 31,-13 12,0 22,4 30,12 7,9 11,20 11,35 0,1 0,3 0,4l-68 0c1,10 3,18 9,24 5,5 11,8 19,8 5,0 10,-2 14,-5 4,-3 7,-8 10,-14zm-51 -25l51 0c-1,-8 -3,-14 -6,-18 -5,-6 -11,-9 -19,-9 -7,0 -13,3 -18,8 -5,4 -8,11 -8,19z"/>
  <path id="16" class="fil13" d="M9074 7552l-15 0 0 -126 16 0 0 45c6,-8 15,-12 25,-12 5,0 11,1 16,3 5,2 9,6 12,10 3,4 6,9 8,15 2,5 3,12 3,18 0,16 -4,28 -12,36 -8,9 -17,13 -28,13 -11,0 -19,-4 -25,-13l0 11zm0 -46c0,11 1,19 4,24 5,8 11,12 20,12 7,0 12,-3 17,-9 5,-6 8,-15 8,-27 0,-12 -3,-20 -7,-26 -5,-6 -11,-9 -18,-9 -6,0 -12,3 -17,9 -5,6 -7,15 -7,26z"/>
  <path id="17" class="fil13" d="M9157 7587l-2 -14c3,1 6,2 9,2 3,0 6,-1 8,-2 2,-1 4,-3 5,-5 1,-2 3,-5 5,-12 0,0 1,-2 1,-3l-34 -92 16 0 19 53c3,6 5,13 7,21 2,-7 4,-14 6,-21l20 -53 15 0 -34 93c-4,10 -7,17 -9,21 -3,5 -6,8 -9,11 -4,2 -8,3 -13,3 -3,0 -7,0 -10,-2z"/>
  <path id="18" class="fil13" d="M9273 7552l49 -126 18 0 51 126 -19 0 -14 -38 -53 0 -14 38 -18 0zm36 -52l43 0 -13 -35c-4,-10 -7,-19 -9,-26 -1,8 -4,16 -7,24l-14 37z"/>
  <path id="19" class="fil13" d="M9403 7552l0 -91 14 0 0 13c6,-10 16,-15 29,-15 5,0 10,1 15,3 4,2 8,4 10,8 3,3 4,7 5,11 1,3 1,8 1,15l0 56 -16 0 0 -55c0,-7 0,-11 -1,-15 -2,-3 -4,-5 -7,-7 -3,-2 -6,-3 -11,-3 -6,0 -12,2 -17,6 -4,5 -7,13 -7,24l0 50 -15 0z"/>
  <path id="20" class="fil13" d="M9560 7552l0 -11c-6,9 -14,13 -26,13 -7,0 -14,-2 -20,-6 -6,-4 -11,-9 -14,-17 -3,-7 -5,-15 -5,-24 0,-10 1,-18 4,-25 4,-8 8,-13 14,-17 6,-4 13,-6 21,-6 5,0 10,1 14,3 5,3 8,6 11,9l0 -45 15 0 0 126 -14 0zm-49 -45c0,11 2,20 7,26 5,6 11,9 18,9 7,0 12,-3 17,-9 5,-5 7,-14 7,-25 0,-13 -2,-22 -7,-28 -5,-5 -11,-8 -18,-8 -7,0 -13,2 -17,8 -5,6 -7,15 -7,27z"/>
  <path id="21" class="fil13" d="M9599 7444l0 -18 15 0 0 18 -15 0zm0 108l0 -91 15 0 0 91 -15 0z"/>
  <polygon id="22" class="fil13" points="9642,7552 9642,7535 9660,7535 9660,7552 "/>
  <polygon id="23" class="fil13" points="9767,7552 9767,7441 9725,7441 9725,7426 9825,7426 9825,7441 9784,7441 9784,7552 "/>
  <path id="24" class="fil13" d="M9841 7552l0 -126 15 0 0 45c7,-8 16,-12 27,-12 7,0 13,1 18,4 5,2 9,6 11,11 2,5 3,11 3,20l0 58 -16 0 0 -58c0,-7 -1,-13 -5,-17 -3,-3 -8,-5 -14,-5 -4,0 -9,1 -13,4 -4,2 -7,5 -8,9 -2,5 -3,10 -3,17l0 50 -15 0z"/>
  <path id="25" class="fil13" d="M9939 7444l0 -18 15 0 0 18 -15 0zm0 108l0 -91 15 0 0 91 -15 0z"/>
  <path id="26" class="fil13" d="M9972 7525l15 -3c1,7 3,11 7,15 4,3 10,5 17,5 7,0 12,-2 16,-5 3,-3 5,-6 5,-10 0,-4 -2,-6 -5,-8 -2,-2 -7,-3 -16,-6 -11,-2 -19,-5 -23,-7 -5,-2 -8,-5 -10,-9 -2,-3 -4,-7 -4,-12 0,-4 1,-8 3,-11 2,-4 5,-7 8,-9 2,-2 5,-3 10,-4 4,-2 8,-2 13,-2 7,0 13,1 19,3 5,2 9,5 12,8 2,4 4,9 5,15l-15 2c-1,-5 -3,-9 -6,-12 -3,-2 -8,-4 -14,-4 -7,0 -12,2 -15,4 -3,2 -5,5 -5,8 0,2 1,4 2,6 2,1 3,3 6,4 2,0 6,2 14,4 11,3 18,5 23,7 4,2 8,5 10,8 3,4 4,8 4,13 0,5 -2,10 -5,15 -3,4 -7,8 -13,10 -6,3 -12,4 -19,4 -12,0 -21,-2 -27,-7 -7,-5 -11,-12 -12,-22z"/>
  <path id="27" class="fil13" d="M10115 7587l0 -126 14 0 0 12c4,-5 7,-8 12,-11 4,-2 9,-3 15,-3 8,0 14,2 20,6 6,4 11,9 14,17 3,7 4,15 4,24 0,9 -1,18 -5,25 -3,8 -8,13 -14,17 -7,4 -13,6 -20,6 -6,0 -10,-1 -14,-3 -4,-2 -8,-5 -10,-8l0 44 -16 0zm14 -80c0,12 3,20 7,26 5,6 11,9 18,9 7,0 12,-3 17,-9 5,-6 8,-15 8,-27 0,-12 -3,-21 -8,-26 -4,-6 -10,-9 -17,-9 -6,0 -12,3 -17,9 -5,6 -8,15 -8,27z"/>
  <path id="28" class="fil13" d="M10213 7552l0 -91 14 0 0 14c4,-7 7,-11 10,-13 3,-2 6,-3 10,-3 5,0 10,1 16,5l-6 14c-4,-2 -7,-3 -11,-3 -3,0 -6,1 -9,3 -3,2 -5,5 -6,8 -2,6 -2,12 -2,18l0 48 -16 0z"/>
  <path id="29" class="fil13" d="M10266 7507c0,-17 5,-30 14,-38 8,-7 18,-10 29,-10 13,0 23,4 31,12 8,8 12,20 12,34 0,12 -2,21 -5,28 -4,7 -9,12 -16,16 -7,3 -14,5 -22,5 -13,0 -23,-4 -31,-12 -8,-8 -12,-20 -12,-35zm16 0c0,11 3,20 8,26 5,6 11,9 19,9 8,0 14,-3 19,-9 5,-6 8,-15 8,-27 0,-11 -3,-20 -8,-26 -5,-5 -11,-8 -19,-8 -8,0 -14,3 -19,8 -5,6 -8,15 -8,27z"/>
  <path id="30" class="fil13" d="M10370 7444l0 -18 15 0 0 18 -15 0zm-20 144l3 -13c3,0 6,1 8,1 3,0 5,-1 7,-3 1,-2 2,-8 2,-16l0 -96 15 0 0 96c0,11 -1,19 -4,24 -4,5 -10,8 -19,8 -4,0 -8,0 -12,-1z"/>
  <path id="31" class="fil13" d="M10472 7523l16 2c-3,9 -7,16 -14,21 -7,6 -16,8 -26,8 -14,0 -24,-4 -32,-12 -8,-8 -12,-20 -12,-35 0,-15 4,-27 12,-35 8,-9 18,-13 31,-13 12,0 22,4 30,12 7,9 11,20 11,35 0,1 0,3 0,4l-68 0c1,10 3,18 9,24 5,5 11,8 19,8 5,0 10,-2 14,-5 4,-3 7,-8 10,-14zm-51 -25l51 0c-1,-8 -3,-14 -6,-18 -5,-6 -11,-9 -19,-9 -7,0 -13,3 -18,8 -5,4 -8,11 -8,19z"/>
  <path id="32" class="fil13" d="M10567 7519l15 2c-1,10 -6,18 -12,24 -7,6 -16,9 -26,9 -12,0 -22,-4 -30,-12 -7,-8 -11,-20 -11,-35 0,-10 1,-19 5,-26 3,-7 8,-13 15,-17 6,-3 14,-5 21,-5 10,0 18,2 25,7 6,5 10,12 12,22l-15 2c-2,-6 -4,-11 -8,-14 -3,-3 -8,-5 -13,-5 -8,0 -14,3 -19,9 -5,5 -7,14 -7,26 0,13 2,22 7,27 4,6 11,9 18,9 6,0 11,-2 15,-6 4,-4 7,-10 8,-17z"/>
  <path id="33" class="fil13" d="M10629 7538l2 14c-4,1 -8,2 -11,2 -6,0 -10,-1 -13,-3 -3,-2 -6,-4 -7,-7 -1,-3 -2,-9 -2,-19l0 -52 -11 0 0 -12 11 0 0 -23 16 -9 0 32 15 0 0 12 -15 0 0 53c0,5 0,8 1,9 0,1 1,2 2,3 1,1 3,1 5,1 2,0 4,0 7,-1z"/>
  <path id="34" class="fil13" d="M10710 7552l-28 -91 17 0 14 53 5 19c1,-1 2,-7 5,-19l15 -53 16 0 13 53 5 17 5 -17 16 -53 15 0 -29 91 -16 0 -14 -54 -4 -16 -19 70 -16 0z"/>
  <path id="35" class="fil13" d="M10815 7507c0,-17 5,-30 14,-38 8,-7 18,-10 29,-10 13,0 23,4 31,12 8,8 12,20 12,34 0,12 -2,21 -5,28 -4,7 -9,12 -16,16 -7,3 -14,5 -22,5 -13,0 -23,-4 -31,-12 -8,-8 -12,-20 -12,-35zm16 0c0,11 3,20 8,26 5,6 11,9 19,9 8,0 14,-3 19,-9 5,-6 8,-15 8,-27 0,-11 -3,-20 -8,-26 -5,-5 -11,-8 -19,-8 -8,0 -14,3 -19,8 -5,6 -8,15 -8,27z"/>
  <path id="36" class="fil13" d="M10979 7552l0 -13c-7,10 -17,15 -29,15 -5,0 -11,-1 -15,-3 -5,-2 -8,-5 -11,-8 -2,-3 -3,-7 -4,-11 -1,-3 -1,-8 -1,-15l0 -56 15 0 0 50c0,8 1,14 1,17 1,4 3,7 6,9 4,3 7,4 12,4 5,0 9,-1 13,-4 4,-2 7,-5 9,-9 1,-5 2,-11 2,-18l0 -49 16 0 0 91 -14 0z"/>
  <polygon id="37" class="fil13" points="11017,7552 11017,7426 11032,7426 11032,7552 "/>
  <path id="38" class="fil13" d="M11115 7552l0 -11c-5,9 -14,13 -25,13 -7,0 -14,-2 -20,-6 -6,-4 -11,-9 -14,-17 -4,-7 -5,-15 -5,-24 0,-10 1,-18 4,-25 3,-8 8,-13 14,-17 6,-4 13,-6 20,-6 6,0 11,1 15,3 4,3 8,6 10,9l0 -45 16 0 0 126 -15 0zm-49 -45c0,11 3,20 8,26 5,6 11,9 17,9 7,0 13,-3 18,-9 4,-5 7,-14 7,-25 0,-13 -3,-22 -7,-28 -5,-5 -11,-8 -18,-8 -7,0 -13,2 -18,8 -4,6 -7,15 -7,27z"/>
  <path id="39" class="fil13" d="M11203 7552l0 -91 14 0 0 13c7,-10 17,-15 29,-15 6,0 11,1 16,3 4,2 8,4 10,8 2,3 4,7 5,11 0,3 1,8 1,15l0 56 -16 0 0 -55c0,-7 0,-11 -2,-15 -1,-3 -3,-5 -6,-7 -3,-2 -7,-3 -11,-3 -6,0 -12,2 -17,6 -5,5 -7,13 -7,24l0 50 -16 0z"/>
  <path id="40" class="fil13" d="M11296 7507c0,-17 4,-30 14,-38 8,-7 17,-10 29,-10 12,0 22,4 30,12 8,8 12,20 12,34 0,12 -1,21 -5,28 -3,7 -9,12 -15,16 -7,3 -14,5 -22,5 -13,0 -24,-4 -31,-12 -8,-8 -12,-20 -12,-35zm16 0c0,11 2,20 7,26 5,6 12,9 20,9 7,0 14,-3 19,-9 5,-6 8,-15 8,-27 0,-11 -3,-20 -8,-26 -5,-5 -12,-8 -19,-8 -8,0 -15,3 -20,8 -5,6 -7,15 -7,27z"/>
  <path id="41" class="fil13" d="M11433 7538l2 14c-4,1 -8,2 -11,2 -6,0 -10,-1 -13,-3 -3,-2 -6,-4 -7,-7 -1,-3 -2,-9 -2,-19l0 -52 -11 0 0 -12 11 0 0 -23 16 -9 0 32 15 0 0 12 -15 0 0 53c0,5 0,8 1,9 0,1 1,2 2,3 2,1 3,1 6,1 1,0 4,0 6,-1z"/>
  <path id="42" class="fil13" d="M11498 7552l0 -126 15 0 0 45c7,-8 16,-12 27,-12 7,0 13,1 18,4 5,2 9,6 11,11 2,5 3,11 3,20l0 58 -16 0 0 -58c0,-7 -1,-13 -5,-17 -3,-3 -8,-5 -14,-5 -4,0 -9,1 -13,4 -4,2 -7,5 -8,9 -2,5 -3,10 -3,17l0 50 -15 0z"/>
  <path id="43" class="fil13" d="M11656 7541c-6,5 -12,8 -17,10 -5,2 -11,3 -17,3 -10,0 -18,-2 -23,-7 -6,-5 -9,-11 -9,-19 0,-4 2,-8 4,-12 2,-4 4,-7 8,-9 3,-2 7,-4 11,-5 3,-1 7,-2 14,-2 12,-2 21,-4 27,-6 0,-2 0,-3 0,-4 0,-6 -1,-11 -4,-13 -4,-4 -10,-5 -18,-5 -7,0 -13,1 -16,4 -3,2 -6,7 -8,13l-15 -2c2,-6 4,-12 7,-16 3,-4 8,-7 14,-9 6,-2 13,-3 21,-3 7,0 14,1 19,3 5,1 8,4 10,6 3,3 4,7 5,11 1,3 1,7 1,14l0 21c0,14 0,23 1,27 1,4 2,8 4,11l-16 0c-2,-3 -3,-7 -3,-11zm-2 -35c-5,3 -14,5 -25,6 -6,1 -11,2 -14,3 -2,1 -4,3 -6,5 -1,3 -2,5 -2,8 0,4 2,7 5,10 3,3 7,4 14,4 5,0 11,-1 15,-4 5,-2 9,-6 11,-11 1,-3 2,-8 2,-15l0 -6z"/>
  <path id="44" class="fil13" d="M11719 7552l-35 -91 17 0 20 55c2,5 4,12 5,18 2,-5 4,-11 6,-17l21 -56 15 0 -34 91 -15 0z"/>
  <path id="45" class="fil13" d="M11845 7523l16 2c-3,9 -8,16 -14,21 -7,6 -16,8 -27,8 -13,0 -23,-4 -31,-12 -8,-8 -12,-20 -12,-35 0,-15 4,-27 12,-35 8,-9 18,-13 31,-13 12,0 22,4 29,12 8,9 12,20 12,35 0,1 0,3 0,4l-68 0c0,10 3,18 8,24 5,5 12,8 19,8 6,0 11,-2 15,-5 4,-3 7,-8 10,-14zm-51 -25l51 0c-1,-8 -3,-14 -6,-18 -5,-6 -11,-9 -19,-9 -7,0 -13,3 -18,8 -5,4 -8,11 -8,19z"/>
  <path id="46" class="fil13" d="M11943 7552l-14 0 0 -126 16 0 0 45c6,-8 14,-12 25,-12 5,0 11,1 16,3 5,2 9,6 12,10 3,4 6,9 8,15 1,5 2,12 2,18 0,16 -4,28 -11,36 -8,9 -17,13 -28,13 -11,0 -19,-4 -26,-13l0 11zm0 -46c0,11 2,19 5,24 5,8 11,12 20,12 6,0 12,-3 17,-9 5,-6 8,-15 8,-27 0,-12 -3,-20 -8,-26 -4,-6 -10,-9 -17,-9 -7,0 -12,3 -17,9 -5,6 -8,15 -8,26z"/>
  <path id="47" class="fil13" d="M12090 7523l16 2c-3,9 -7,16 -14,21 -7,6 -16,8 -26,8 -14,0 -24,-4 -32,-12 -8,-8 -12,-20 -12,-35 0,-15 4,-27 12,-35 8,-9 18,-13 31,-13 12,0 22,4 30,12 7,9 11,20 11,35 0,1 0,3 0,4l-68 0c1,10 3,18 9,24 5,5 11,8 19,8 5,0 10,-2 14,-5 4,-3 7,-8 10,-14zm-51 -25l51 0c-1,-8 -3,-14 -6,-18 -5,-6 -11,-9 -19,-9 -7,0 -13,3 -18,8 -5,4 -8,11 -8,19z"/>
  <path id="48" class="fil13" d="M12188 7523l16 2c-3,9 -7,16 -14,21 -7,6 -16,8 -26,8 -14,0 -24,-4 -32,-12 -8,-8 -12,-20 -12,-35 0,-15 4,-27 12,-35 8,-9 18,-13 31,-13 12,0 22,4 30,12 8,9 11,20 11,35 0,1 0,3 0,4l-68 0c1,10 4,18 9,24 5,5 11,8 19,8 5,0 10,-2 14,-5 4,-3 7,-8 10,-14zm-51 -25l51 0c-1,-8 -3,-14 -6,-18 -5,-6 -11,-9 -19,-9 -7,0 -13,3 -18,8 -5,4 -7,11 -8,19z"/>
  <path id="49" class="fil13" d="M12223 7552l0 -91 14 0 0 13c7,-10 17,-15 29,-15 6,0 11,1 16,3 4,2 8,4 10,8 2,3 4,7 5,11 0,3 1,8 1,15l0 56 -16 0 0 -55c0,-7 0,-11 -2,-15 -1,-3 -3,-5 -6,-7 -3,-2 -7,-3 -11,-3 -6,0 -12,2 -17,6 -5,5 -7,13 -7,24l0 50 -16 0z"/>
  <path id="50" class="fil13" d="M12371 7587l0 -126 14 0 0 12c3,-5 7,-8 11,-11 4,-2 9,-3 15,-3 8,0 15,2 21,6 6,4 10,9 13,17 3,7 5,15 5,24 0,9 -2,18 -5,25 -3,8 -8,13 -15,17 -6,4 -13,6 -20,6 -5,0 -10,-1 -14,-3 -4,-2 -7,-5 -10,-8l0 44 -15 0zm14 -80c0,12 2,20 7,26 5,6 10,9 17,9 7,0 13,-3 18,-9 5,-6 7,-15 7,-27 0,-12 -2,-21 -7,-26 -5,-6 -11,-9 -17,-9 -7,0 -13,3 -18,9 -5,6 -7,15 -7,27z"/>
  <path id="51" class="fil13" d="M12463 7507c0,-17 5,-30 14,-38 8,-7 17,-10 29,-10 12,0 23,4 31,12 8,8 12,20 12,34 0,12 -2,21 -6,28 -3,7 -8,12 -15,16 -7,3 -14,5 -22,5 -13,0 -23,-4 -31,-12 -8,-8 -12,-20 -12,-35zm16 0c0,11 2,20 7,26 6,6 12,9 20,9 7,0 14,-3 19,-9 5,-6 8,-15 8,-27 0,-11 -3,-20 -8,-26 -5,-5 -12,-8 -19,-8 -8,0 -14,3 -20,8 -5,6 -7,15 -7,27z"/>
  <path id="52" class="fil13" d="M12561 7525l15 -3c1,7 3,11 7,15 4,3 10,5 17,5 7,0 12,-2 16,-5 3,-3 5,-6 5,-10 0,-4 -2,-6 -5,-8 -2,-2 -7,-3 -16,-6 -11,-2 -19,-5 -23,-7 -5,-2 -8,-5 -10,-9 -3,-3 -4,-7 -4,-12 0,-4 1,-8 3,-11 2,-4 4,-7 8,-9 2,-2 5,-3 10,-4 4,-2 8,-2 13,-2 7,0 13,1 19,3 5,2 9,5 12,8 2,4 4,9 5,15l-15 2c-1,-5 -3,-9 -6,-12 -3,-2 -8,-4 -14,-4 -7,0 -12,2 -15,4 -3,2 -5,5 -5,8 0,2 1,4 2,6 1,1 3,3 6,4 2,0 6,2 14,4 11,3 18,5 23,7 4,2 7,5 10,8 2,4 4,8 4,13 0,5 -2,10 -5,15 -3,4 -7,8 -13,10 -6,3 -12,4 -19,4 -12,0 -21,-2 -27,-7 -7,-5 -11,-12 -12,-22z"/>
  <path id="53" class="fil13" d="M12649 7525l15 -3c1,7 3,11 7,15 4,3 10,5 17,5 7,0 12,-2 16,-5 3,-3 5,-6 5,-10 0,-4 -2,-6 -5,-8 -2,-2 -7,-3 -16,-6 -11,-2 -19,-5 -23,-7 -5,-2 -8,-5 -10,-9 -2,-3 -4,-7 -4,-12 0,-4 1,-8 3,-11 2,-4 5,-7 8,-9 2,-2 6,-3 10,-4 4,-2 8,-2 13,-2 7,0 14,1 19,3 5,2 9,5 12,8 3,4 4,9 5,15l-15 2c-1,-5 -3,-9 -6,-12 -3,-2 -8,-4 -14,-4 -7,0 -12,2 -15,4 -3,2 -5,5 -5,8 0,2 1,4 2,6 2,1 4,3 6,4 2,0 6,2 14,4 11,3 19,5 23,7 4,2 8,5 10,8 3,4 4,8 4,13 0,5 -2,10 -5,15 -3,4 -7,8 -13,10 -5,3 -12,4 -19,4 -12,0 -21,-2 -27,-7 -6,-5 -10,-12 -12,-22z"/>
  <path id="54" class="fil13" d="M12743 7444l0 -18 16 0 0 18 -16 0zm0 108l0 -91 16 0 0 91 -16 0z"/>
  <path id="55" class="fil13" d="M12797 7552l-15 0 0 -126 16 0 0 45c6,-8 15,-12 25,-12 5,0 11,1 16,3 5,2 9,6 12,10 3,4 6,9 8,15 2,5 3,12 3,18 0,16 -4,28 -12,36 -8,9 -17,13 -28,13 -11,0 -19,-4 -25,-13l0 11zm-1 -46c0,11 2,19 5,24 5,8 11,12 20,12 7,0 12,-3 17,-9 5,-6 8,-15 8,-27 0,-12 -3,-20 -7,-26 -5,-6 -11,-9 -18,-9 -6,0 -12,3 -17,9 -5,6 -8,15 -8,26z"/>
  <polygon id="56" class="fil13" points="12880,7552 12880,7426 12896,7426 12896,7552 "/>
  <path id="57" class="fil13" d="M12982 7523l16 2c-2,9 -7,16 -14,21 -7,6 -15,8 -26,8 -13,0 -24,-4 -32,-12 -8,-8 -11,-20 -11,-35 0,-15 3,-27 11,-35 8,-9 19,-13 31,-13 12,0 22,4 30,12 8,9 12,20 12,35 0,1 0,3 0,4l-69 0c1,10 4,18 9,24 5,5 11,8 19,8 6,0 11,-2 15,-5 4,-3 7,-8 9,-14zm-51 -25l51 0c0,-8 -2,-14 -6,-18 -4,-6 -11,-9 -19,-9 -7,0 -13,3 -18,8 -4,4 -7,11 -8,19z"/>
  <path id="58" class="fil13" d="M6909 7749l-27 -91 16 0 14 53 6 19c0,-1 1,-7 4,-19l15 -53 16 0 14 53 4 17 5 -17 16 -53 15 0 -28 91 -17 0 -14 -54 -4 -16 -18 70 -17 0z"/>
  <path id="59" class="fil13" d="M7020 7641l0 -18 16 0 0 18 -16 0zm0 108l0 -91 16 0 0 91 -16 0z"/>
  <path id="60" class="fil13" d="M7093 7735l2 14c-4,1 -8,2 -11,2 -6,0 -10,-1 -14,-3 -3,-2 -5,-4 -6,-7 -1,-3 -2,-9 -2,-18l0 -53 -11 0 0 -12 11 0 0 -23 16 -9 0 32 15 0 0 12 -15 0 0 53c0,5 0,8 0,9 1,1 2,2 3,3 1,1 3,1 5,1 2,0 4,0 7,-1z"/>
  <path id="61" class="fil13" d="M7108 7749l0 -126 16 0 0 45c7,-8 16,-12 27,-12 7,0 13,1 18,4 5,3 8,6 10,11 3,5 4,11 4,20l0 58 -16 0 0 -58c0,-7 -2,-13 -5,-16 -3,-4 -8,-6 -14,-6 -5,0 -9,1 -13,4 -4,2 -7,5 -9,10 -1,4 -2,9 -2,16l0 50 -16 0z"/>
  <path id="62" class="fil13" d="M7201 7704c0,-17 4,-30 14,-38 8,-7 17,-10 29,-10 12,0 22,4 30,12 8,8 12,20 12,34 0,12 -1,21 -5,28 -3,7 -9,12 -15,16 -7,3 -14,5 -22,5 -13,0 -24,-4 -31,-12 -8,-8 -12,-20 -12,-35zm16 0c0,11 2,20 7,26 5,6 12,9 20,9 7,0 14,-3 19,-9 5,-6 8,-15 8,-27 0,-11 -3,-20 -8,-26 -5,-5 -12,-8 -19,-8 -8,0 -15,3 -20,8 -5,6 -7,15 -7,27z"/>
  <path id="63" class="fil13" d="M7364 7749l0 -13c-7,10 -16,15 -29,15 -5,0 -10,-1 -15,-3 -4,-2 -8,-4 -10,-8 -2,-3 -4,-7 -5,-11 0,-3 -1,-8 -1,-15l0 -56 16 0 0 50c0,9 0,14 1,17 1,4 3,7 6,9 3,3 7,4 12,4 4,0 9,-1 13,-4 4,-2 7,-5 8,-9 2,-5 3,-10 3,-18l0 -49 15 0 0 91 -14 0z"/>
  <path id="64" class="fil13" d="M7436 7735l3 14c-5,1 -9,2 -12,2 -6,0 -10,-1 -13,-3 -3,-2 -5,-4 -7,-7 -1,-3 -2,-9 -2,-18l0 -53 -11 0 0 -12 11 0 0 -23 16 -9 0 32 15 0 0 12 -15 0 0 53c0,5 0,8 1,9 0,1 1,2 2,3 2,1 3,1 6,1 1,0 4,0 6,-1z"/>
  <path id="65" class="fil13" d="M7498 7757l15 2c0,5 2,8 5,10 4,3 9,5 16,5 7,0 13,-2 17,-5 3,-3 6,-7 8,-12 0,-3 1,-10 1,-20 -7,8 -16,12 -26,12 -12,0 -22,-4 -29,-13 -7,-9 -10,-20 -10,-33 0,-9 1,-17 4,-24 4,-7 8,-13 14,-17 6,-4 13,-6 21,-6 11,0 20,4 27,13l0 -11 14 0 0 79c0,14 -1,24 -4,30 -3,6 -8,11 -14,14 -6,4 -14,5 -23,5 -11,0 -20,-2 -26,-7 -7,-5 -10,-12 -10,-22zm13 -55c0,12 2,21 7,26 5,6 10,8 18,8 7,0 13,-2 18,-8 4,-5 7,-14 7,-25 0,-12 -3,-20 -8,-26 -5,-5 -11,-8 -18,-8 -6,0 -12,3 -17,8 -5,6 -7,14 -7,25z"/>
  <path id="66" class="fil13" d="M7659 7749l0 -13c-7,10 -17,15 -29,15 -6,0 -11,-1 -15,-3 -5,-2 -9,-4 -11,-8 -2,-3 -4,-7 -5,-11 0,-3 -1,-8 -1,-15l0 -56 16 0 0 50c0,9 0,14 1,17 1,4 3,7 6,9 3,3 7,4 12,4 4,0 9,-1 13,-4 4,-2 7,-5 9,-9 1,-5 2,-10 2,-18l0 -49 16 0 0 91 -14 0z"/>
  <path id="67" class="fil13" d="M7696 7785l-2 -15c4,1 7,2 9,2 4,0 7,-1 9,-2 2,-1 3,-3 5,-5 1,-2 2,-5 4,-12 1,0 1,-2 2,-3l-35 -92 17 0 19 53c2,6 5,13 6,21 2,-7 4,-14 7,-21l19 -53 16 0 -35 93c-3,10 -6,17 -8,21 -3,5 -6,8 -10,11 -4,2 -8,3 -13,3 -3,0 -6,0 -10,-1z"/>
  <path id="68" class="fil13" d="M7779 7722l15 -2c1,6 4,10 8,14 3,3 9,5 16,5 7,0 12,-2 16,-5 3,-3 5,-6 5,-10 0,-3 -1,-6 -5,-8 -2,-2 -7,-3 -15,-6 -12,-2 -20,-5 -24,-7 -4,-2 -8,-5 -10,-9 -2,-3 -3,-7 -3,-12 0,-4 1,-8 2,-11 2,-4 5,-7 8,-9 2,-2 6,-3 10,-4 4,-2 8,-2 13,-2 7,0 14,1 19,3 6,2 10,5 12,8 3,4 4,9 5,15l-15 2c0,-5 -2,-9 -6,-11 -3,-3 -8,-4 -14,-4 -7,0 -12,1 -15,3 -3,2 -4,5 -4,8 0,2 0,4 1,6 2,1 4,3 6,4 2,0 7,2 14,4 11,3 19,5 23,7 4,2 8,5 10,8 3,4 4,8 4,13 0,6 -2,10 -5,15 -3,5 -7,8 -13,11 -5,2 -12,3 -19,3 -12,0 -21,-2 -27,-7 -6,-5 -10,-12 -12,-22z"/>
  <path id="69" class="fil13" d="M7926 7749l0 -79 -14 0 0 -12 14 0 0 -10c0,-6 1,-11 2,-14 1,-4 4,-7 8,-9 3,-3 9,-4 15,-4 5,0 9,0 15,1l-3 14c-3,0 -6,-1 -9,-1 -4,0 -8,1 -10,3 -2,2 -3,6 -3,11l0 9 18 0 0 12 -17 0 0 79 -16 0z"/>
  <path id="70" class="fil13" d="M7971 7749l0 -91 14 0 0 14c4,-7 7,-11 10,-13 3,-2 6,-3 10,-3 5,0 11,1 16,5l-6 14c-3,-2 -7,-3 -11,-3 -3,0 -6,1 -9,3 -3,2 -5,5 -6,8 -1,6 -2,12 -2,19l0 47 -16 0z"/>
  <path id="71" class="fil13" d="M8024 7704c0,-17 5,-30 14,-38 8,-7 18,-10 29,-10 13,0 23,4 31,12 8,8 12,20 12,34 0,12 -2,21 -5,28 -4,7 -9,12 -16,16 -6,3 -14,5 -22,5 -13,0 -23,-4 -31,-12 -8,-8 -12,-20 -12,-35zm16 0c0,11 3,20 8,26 5,6 11,9 19,9 8,0 14,-3 19,-9 6,-6 8,-15 8,-27 0,-11 -2,-20 -8,-26 -5,-5 -11,-8 -19,-8 -8,0 -14,3 -19,8 -5,6 -8,15 -8,27z"/>
  <path id="72" class="fil13" d="M8128 7749l0 -91 14 0 0 13c3,-5 7,-8 12,-11 4,-3 10,-4 16,-4 7,0 12,1 16,4 5,3 8,7 10,12 7,-11 16,-16 28,-16 9,0 16,2 21,7 5,5 7,13 7,24l0 62 -15 0 0 -57c0,-6 -1,-11 -2,-14 -1,-2 -2,-5 -5,-6 -3,-2 -6,-3 -9,-3 -7,0 -12,2 -17,7 -4,4 -6,11 -6,20l0 53 -15 0 0 -59c0,-7 -2,-12 -4,-16 -3,-3 -7,-5 -13,-5 -4,0 -8,1 -12,4 -3,2 -6,5 -8,10 -1,4 -2,11 -2,19l0 47 -16 0z"/>
  <path id="73" class="fil13" d="M8303 7749l48 -126 18 0 52 126 -19 0 -15 -38 -53 0 -14 38 -17 0zm36 -52l43 0 -13 -35c-4,-10 -7,-19 -9,-26 -2,8 -4,16 -7,24l-14 37z"/>
  <polygon id="74" class="fil13" points="8433,7749 8433,7623 8450,7623 8450,7686 8513,7623 8535,7623 8482,7674 8538,7749 8516,7749 8471,7686 8450,7706 8450,7749 "/>
  <path id="75" class="fil13" d="M8551 7749l0 -126 25 0 30 89c3,9 5,15 6,19 2,-4 4,-11 7,-20l30 -88 23 0 0 126 -16 0 0 -105 -37 105 -15 0 -37 -107 0 107 -16 0z"/>
  <path id="76" class="fil13" d="M8697 7641l0 -18 15 0 0 18 -15 0zm0 108l0 -91 15 0 0 91 -15 0z"/>
  <path id="77" class="fil13" d="M8779 7722l15 -2c1,6 3,10 7,14 4,3 10,5 17,5 7,0 12,-2 16,-5 3,-3 5,-6 5,-10 0,-3 -2,-6 -5,-8 -2,-2 -7,-3 -16,-6 -11,-2 -19,-5 -23,-7 -5,-2 -8,-5 -10,-9 -3,-3 -4,-7 -4,-12 0,-4 1,-8 3,-11 2,-4 5,-7 8,-9 2,-2 5,-3 10,-4 4,-2 8,-2 13,-2 7,0 13,1 19,3 5,2 9,5 12,8 2,4 4,9 5,15l-15 2c-1,-5 -3,-9 -6,-11 -3,-3 -8,-4 -14,-4 -7,0 -12,1 -15,3 -3,2 -5,5 -5,8 0,2 1,4 2,6 1,1 3,3 6,4 2,0 6,2 14,4 11,3 18,5 23,7 4,2 7,5 10,8 2,4 4,8 4,13 0,6 -2,10 -5,15 -3,5 -7,8 -13,11 -6,2 -12,3 -19,3 -12,0 -21,-2 -27,-7 -7,-5 -11,-12 -12,-22z"/>
  <path id="78" class="fil13" d="M8907 7735l2 14c-5,1 -8,2 -12,2 -5,0 -10,-1 -13,-3 -3,-2 -5,-4 -6,-7 -2,-3 -2,-9 -2,-18l0 -53 -12 0 0 -12 12 0 0 -23 15 -9 0 32 16 0 0 12 -16 0 0 53c0,5 0,8 1,9 1,1 1,2 3,3 1,1 3,1 5,1 2,0 4,0 7,-1z"/>
  <path id="79" class="fil13" d="M8982 7749l0 -13c-7,10 -17,15 -29,15 -5,0 -11,-1 -15,-3 -5,-2 -8,-4 -11,-8 -2,-3 -3,-7 -4,-11 -1,-3 -1,-8 -1,-15l0 -56 15 0 0 50c0,9 1,14 1,17 1,4 3,7 6,9 4,3 7,4 12,4 5,0 9,-1 13,-4 4,-2 7,-5 9,-9 1,-5 2,-10 2,-18l0 -49 16 0 0 91 -14 0z"/>
  <path id="80" class="fil13" d="M9079 7749l0 -11c-6,9 -14,13 -25,13 -8,0 -14,-2 -20,-6 -7,-4 -11,-9 -15,-17 -3,-7 -5,-15 -5,-24 0,-9 2,-18 5,-25 3,-8 7,-13 14,-17 6,-4 12,-6 20,-6 5,0 10,1 15,3 4,3 7,6 10,9l0 -45 16 0 0 126 -15 0zm-49 -45c0,11 3,20 8,26 5,6 10,9 17,9 7,0 13,-3 17,-9 5,-5 8,-14 8,-25 0,-12 -3,-22 -8,-28 -4,-5 -10,-8 -18,-8 -6,0 -12,3 -17,8 -4,6 -7,15 -7,27z"/>
  <path id="81" class="fil13" d="M9181 7720l16 2c-3,9 -7,16 -14,22 -7,5 -16,7 -26,7 -14,0 -24,-4 -32,-12 -8,-8 -12,-20 -12,-35 0,-15 4,-27 12,-35 8,-9 18,-13 31,-13 12,0 22,4 30,12 7,9 11,20 11,35 0,1 0,3 0,5l-68 0c1,10 3,17 9,23 5,5 11,8 19,8 5,0 10,-2 14,-5 4,-3 7,-8 10,-14zm-51 -25l51 0c-1,-8 -3,-14 -6,-17 -5,-6 -11,-9 -19,-9 -7,0 -13,2 -18,7 -5,4 -8,11 -8,19z"/>
  <path id="82" class="fil13" d="M9216 7749l0 -91 14 0 0 13c7,-10 17,-15 29,-15 6,0 11,1 16,3 4,2 8,4 10,8 2,3 4,7 5,11 0,3 1,8 1,15l0 56 -16 0 0 -55c0,-7 -1,-11 -2,-14 -1,-4 -3,-6 -6,-8 -3,-2 -7,-3 -11,-3 -6,0 -12,2 -17,7 -5,4 -7,12 -7,23l0 50 -16 0z"/>
  <path id="83" class="fil13" d="M9348 7735l2 14c-4,1 -8,2 -11,2 -6,0 -10,-1 -13,-3 -4,-2 -6,-4 -7,-7 -1,-3 -2,-9 -2,-18l0 -53 -11 0 0 -12 11 0 0 -23 16 -9 0 32 15 0 0 12 -15 0 0 53c0,5 0,8 0,9 1,1 2,2 3,3 1,1 3,1 5,1 2,0 4,0 7,-1z"/>
  <path id="84" class="fil13" d="M9357 7722l16 -2c0,6 3,10 7,14 4,3 9,5 16,5 7,0 13,-2 16,-5 4,-3 5,-6 5,-10 0,-3 -1,-6 -4,-8 -2,-2 -8,-3 -16,-6 -11,-2 -19,-5 -24,-7 -4,-2 -7,-5 -10,-9 -2,-3 -3,-7 -3,-12 0,-4 1,-8 3,-11 2,-4 4,-7 7,-9 3,-2 6,-3 10,-4 4,-2 9,-2 14,-2 7,0 13,1 18,3 6,2 10,5 12,8 3,4 5,9 6,15l-15 2c-1,-5 -3,-9 -6,-11 -4,-3 -8,-4 -14,-4 -7,0 -12,1 -16,3 -3,2 -4,5 -4,8 0,2 1,4 2,6 1,1 3,3 6,4 1,0 6,2 13,4 11,3 19,5 23,7 5,2 8,5 11,8 2,4 3,8 3,13 0,6 -1,10 -4,15 -3,5 -8,8 -13,11 -6,2 -12,3 -20,3 -11,0 -21,-2 -27,-7 -6,-5 -10,-12 -12,-22z"/>
  <polygon id="85" class="fil13" points="9456,7749 9456,7732 9474,7732 9474,7749 "/>
  <polygon id="86" class="fil13" points="9581,7749 9581,7638 9539,7638 9539,7623 9639,7623 9639,7638 9597,7638 9597,7749 "/>
  <path id="87" class="fil13" d="M9654 7749l0 -126 16 0 0 45c7,-8 16,-12 27,-12 7,0 13,1 18,4 5,3 8,6 10,11 2,5 3,11 3,20l0 58 -15 0 0 -58c0,-7 -2,-13 -5,-16 -3,-4 -8,-6 -14,-6 -5,0 -9,1 -13,4 -4,2 -7,5 -9,10 -1,4 -2,9 -2,16l0 50 -16 0z"/>
  <path id="88" class="fil13" d="M9815 7720l16 2c-3,9 -7,16 -14,22 -7,5 -16,7 -26,7 -14,0 -24,-4 -32,-12 -8,-8 -12,-20 -12,-35 0,-15 4,-27 12,-35 8,-9 18,-13 31,-13 12,0 22,4 30,12 7,9 11,20 11,35 0,1 0,3 0,5l-68 0c1,10 4,17 9,23 5,5 11,8 19,8 5,0 10,-2 14,-5 4,-3 7,-8 10,-14zm-51 -25l51 0c-1,-8 -3,-14 -6,-17 -5,-6 -11,-9 -19,-9 -7,0 -13,2 -18,7 -5,4 -7,11 -8,19z"/>
  <path id="89" class="fil13" d="M9850 7641l0 -18 16 0 0 18 -16 0zm0 108l0 -91 16 0 0 91 -16 0z"/>
  <path id="90" class="fil13" d="M9889 7749l0 -91 14 0 0 14c4,-7 7,-11 10,-13 3,-2 7,-3 10,-3 5,0 11,1 16,5l-5 14c-4,-2 -8,-3 -12,-3 -3,0 -6,1 -9,3 -2,2 -4,5 -5,8 -2,6 -3,12 -3,19l0 47 -16 0z"/>
  <path id="91" class="fil13" d="M9997 7641l0 -18 16 0 0 18 -16 0zm0 108l0 -91 16 0 0 91 -16 0z"/>
  <path id="92" class="fil13" d="M10037 7749l0 -91 14 0 0 13c6,-10 16,-15 29,-15 5,0 10,1 15,3 4,2 8,4 10,8 2,3 4,7 5,11 1,3 1,8 1,15l0 56 -16 0 0 -55c0,-7 0,-11 -1,-14 -2,-4 -4,-6 -7,-8 -3,-2 -7,-3 -11,-3 -6,0 -12,2 -17,7 -5,4 -7,12 -7,23l0 50 -15 0z"/>
  <path id="93" class="fil13" d="M10194 7716l16 2c-2,10 -6,19 -13,24 -7,6 -15,9 -25,9 -13,0 -23,-4 -31,-12 -7,-8 -11,-20 -11,-35 0,-10 2,-19 5,-26 3,-7 8,-13 15,-17 7,-3 14,-5 22,-5 10,0 18,2 24,7 6,5 10,13 12,22l-15 2c-1,-6 -4,-11 -7,-14 -4,-3 -8,-4 -14,-4 -7,0 -14,2 -19,8 -5,6 -7,14 -7,26 0,13 2,22 7,27 5,6 11,9 18,9 7,0 12,-2 16,-6 4,-4 6,-9 7,-17z"/>
  <path id="94" class="fil13" d="M10223 7749l0 -91 14 0 0 14c3,-7 6,-11 10,-13 3,-2 6,-3 9,-3 6,0 11,1 16,5l-5 14c-4,-2 -8,-3 -11,-3 -4,0 -7,1 -9,3 -3,2 -5,5 -6,8 -2,6 -3,12 -3,19l0 47 -15 0z"/>
  <path id="95" class="fil13" d="M10344 7720l16 2c-2,9 -7,16 -14,22 -7,5 -15,7 -26,7 -13,0 -24,-4 -32,-12 -8,-8 -12,-20 -12,-35 0,-15 4,-27 12,-35 8,-9 19,-13 31,-13 12,0 22,4 30,12 8,9 12,20 12,35 0,1 0,3 0,5l-69 0c1,10 4,17 9,23 5,5 11,8 19,8 6,0 10,-2 14,-5 5,-3 8,-8 10,-14zm-51 -25l51 0c0,-8 -2,-14 -6,-17 -5,-6 -11,-9 -19,-9 -7,0 -13,2 -18,7 -5,4 -7,11 -8,19z"/>
  <path id="96" class="fil13" d="M10439 7749l0 -11c-6,9 -15,13 -26,13 -7,0 -14,-2 -20,-6 -6,-4 -11,-9 -14,-17 -3,-7 -5,-15 -5,-24 0,-9 1,-18 4,-25 4,-8 8,-13 14,-17 6,-4 13,-6 21,-6 5,0 10,1 14,3 5,3 8,6 11,9l0 -45 15 0 0 126 -14 0zm-49 -45c0,11 2,20 7,26 5,6 11,9 18,9 7,0 12,-3 17,-9 5,-5 7,-14 7,-25 0,-12 -2,-22 -7,-28 -5,-5 -11,-8 -18,-8 -7,0 -13,3 -17,8 -5,6 -7,15 -7,27z"/>
  <path id="97" class="fil13" d="M10478 7641l0 -18 15 0 0 18 -15 0zm0 108l0 -91 15 0 0 91 -15 0z"/>
  <path id="98" class="fil13" d="M10531 7749l-14 0 0 -126 15 0 0 45c7,-8 15,-12 25,-12 6,0 11,1 16,3 5,2 10,6 13,10 3,4 6,9 7,15 2,5 3,12 3,18 0,16 -4,28 -11,36 -8,9 -17,13 -28,13 -11,0 -20,-4 -26,-13l0 11zm0 -46c0,11 2,19 5,24 4,8 11,12 19,12 7,0 13,-3 18,-9 5,-6 7,-15 7,-27 0,-11 -2,-20 -7,-26 -4,-6 -10,-8 -17,-8 -7,0 -13,2 -17,8 -5,6 -8,15 -8,26z"/>
  <polygon id="99" class="fil13" points="10615,7749 10615,7623 10630,7623 10630,7749 "/>
  <path id="100" class="fil13" d="M10717 7720l16 2c-3,9 -7,16 -14,22 -7,5 -16,7 -26,7 -14,0 -24,-4 -32,-12 -8,-8 -12,-20 -12,-35 0,-15 4,-27 12,-35 8,-9 18,-13 31,-13 12,0 22,4 30,12 7,9 11,20 11,35 0,1 0,3 0,5l-68 0c1,10 3,17 9,23 5,5 11,8 19,8 5,0 10,-2 14,-5 4,-3 7,-8 10,-14zm-51 -25l51 0c-1,-8 -3,-14 -6,-17 -5,-6 -11,-9 -19,-9 -7,0 -13,2 -18,7 -5,4 -8,11 -8,19z"/>
  <path id="101" class="fil13" d="M10886 7623l17 0 0 73c0,13 -2,23 -4,30 -3,8 -9,14 -16,18 -7,5 -17,7 -29,7 -12,0 -22,-2 -29,-6 -8,-4 -13,-10 -16,-17 -4,-8 -5,-19 -5,-32l0 -73 16 0 0 73c0,11 1,19 4,24 2,5 5,9 10,12 5,3 11,4 18,4 12,0 21,-2 26,-8 5,-5 8,-16 8,-32l0 -73z"/>
  <path id="102" class="fil13" d="M10918 7749l49 -65 -43 -61 20 0 23 32c4,7 8,12 10,16 3,-5 6,-9 10,-14l25 -34 18 0 -44 60 48 66 -21 0 -32 -45c-2,-2 -3,-5 -5,-7 -3,4 -5,7 -6,9l-32 43 -20 0z"/>
  <path id="103" class="fil13" d="M11050 7749l0 -17 18 0 0 17c0,7 -1,12 -3,16 -3,4 -6,7 -11,9l-5 -6c4,-2 6,-4 8,-7 1,-2 2,-6 2,-12l-9 0z"/>
  <path id="104" class="fil13" d="M11159 7749l-15 0 0 -126 16 0 0 45c6,-8 15,-12 25,-12 5,0 11,1 16,3 5,2 9,6 12,10 4,4 6,9 8,15 2,5 3,12 3,18 0,16 -4,28 -12,36 -8,9 -17,13 -28,13 -11,0 -19,-4 -25,-13l0 11zm0 -46c0,11 1,19 4,24 5,8 11,12 20,12 7,0 12,-3 17,-9 5,-6 8,-15 8,-27 0,-11 -3,-20 -7,-26 -5,-6 -11,-8 -17,-8 -7,0 -13,2 -18,8 -5,6 -7,15 -7,26z"/>
  <path id="105" class="fil13" d="M11302 7749l0 -13c-7,10 -16,15 -29,15 -5,0 -10,-1 -15,-3 -4,-2 -8,-4 -10,-8 -2,-3 -4,-7 -5,-11 0,-3 -1,-8 -1,-15l0 -56 16 0 0 50c0,9 0,14 1,17 1,4 3,7 6,9 3,3 7,4 12,4 4,0 9,-1 13,-4 4,-2 7,-5 8,-9 2,-5 3,-10 3,-18l0 -49 15 0 0 91 -14 0z"/>
  <path id="106" class="fil13" d="M11334 7722l16 -2c1,6 3,10 7,14 4,3 9,5 17,5 7,0 12,-2 15,-5 4,-3 6,-6 6,-10 0,-3 -2,-6 -5,-8 -2,-2 -7,-3 -16,-6 -11,-2 -19,-5 -24,-7 -4,-2 -7,-5 -9,-9 -3,-3 -4,-7 -4,-12 0,-4 1,-8 3,-11 2,-4 4,-7 8,-9 2,-2 5,-3 9,-4 5,-2 9,-2 14,-2 7,0 13,1 19,3 5,2 9,5 12,8 2,4 4,9 5,15l-15 2c-1,-5 -3,-9 -6,-11 -3,-3 -8,-4 -14,-4 -7,0 -12,1 -15,3 -3,2 -5,5 -5,8 0,2 1,4 2,6 1,1 3,3 6,4 1,0 6,2 14,4 11,3 18,5 23,7 4,2 7,5 10,8 2,4 3,8 3,13 0,6 -1,10 -4,15 -3,5 -7,8 -13,11 -6,2 -12,3 -19,3 -12,0 -21,-2 -28,-7 -6,-5 -10,-12 -12,-22z"/>
  <path id="107" class="fil13" d="M11429 7641l0 -18 15 0 0 18 -15 0zm0 108l0 -91 15 0 0 91 -15 0z"/>
  <path id="108" class="fil13" d="M11468 7749l0 -91 14 0 0 13c7,-10 16,-15 29,-15 6,0 11,1 15,3 5,2 8,4 11,8 2,3 4,7 4,11 1,3 1,8 1,15l0 56 -15 0 0 -55c0,-7 -1,-11 -2,-14 -1,-4 -3,-6 -6,-8 -3,-2 -7,-3 -11,-3 -7,0 -12,2 -17,7 -5,4 -7,12 -7,23l0 50 -16 0z"/>
  <path id="109" class="fil13" d="M11629 7720l16 2c-3,9 -8,16 -14,22 -7,5 -16,7 -26,7 -14,0 -24,-4 -32,-12 -8,-8 -12,-20 -12,-35 0,-15 4,-27 12,-35 8,-9 18,-13 31,-13 12,0 22,4 30,12 7,9 11,20 11,35 0,1 0,3 0,5l-68 0c0,10 3,17 8,23 6,5 12,8 20,8 5,0 10,-2 14,-5 4,-3 7,-8 10,-14zm-51 -25l51 0c-1,-8 -3,-14 -6,-17 -5,-6 -11,-9 -19,-9 -7,0 -13,2 -18,7 -5,4 -8,11 -8,19z"/>
  <path id="110" class="fil13" d="M11658 7722l15 -2c1,6 4,10 8,14 4,3 9,5 16,5 7,0 13,-2 16,-5 3,-3 5,-6 5,-10 0,-3 -1,-6 -4,-8 -3,-2 -8,-3 -16,-6 -12,-2 -20,-5 -24,-7 -4,-2 -8,-5 -10,-9 -2,-3 -3,-7 -3,-12 0,-4 1,-8 3,-11 1,-4 4,-7 7,-9 3,-2 6,-3 10,-4 4,-2 9,-2 13,-2 8,0 14,1 19,3 6,2 10,5 12,8 3,4 5,9 6,15l-16 2c0,-5 -2,-9 -6,-11 -3,-3 -8,-4 -14,-4 -7,0 -12,1 -15,3 -3,2 -4,5 -4,8 0,2 0,4 2,6 1,1 3,3 6,4 1,0 6,2 13,4 11,3 19,5 23,7 4,2 8,5 10,8 3,4 4,8 4,13 0,6 -1,10 -4,15 -3,5 -8,8 -13,11 -6,2 -13,3 -20,3 -12,0 -21,-2 -27,-7 -6,-5 -10,-12 -12,-22z"/>
  <path id="111" class="fil13" d="M11746 7722l16 -2c0,6 3,10 7,14 4,3 9,5 16,5 7,0 13,-2 16,-5 4,-3 5,-6 5,-10 0,-3 -1,-6 -4,-8 -2,-2 -8,-3 -16,-6 -11,-2 -19,-5 -24,-7 -4,-2 -7,-5 -10,-9 -2,-3 -3,-7 -3,-12 0,-4 1,-8 3,-11 2,-4 4,-7 7,-9 3,-2 6,-3 10,-4 4,-2 9,-2 14,-2 7,0 13,1 18,3 6,2 10,5 12,8 3,4 5,9 6,15l-15 2c-1,-5 -3,-9 -6,-11 -4,-3 -8,-4 -14,-4 -7,0 -13,1 -16,3 -3,2 -4,5 -4,8 0,2 1,4 2,6 1,1 3,3 6,4 1,0 6,2 13,4 11,3 19,5 23,7 5,2 8,5 11,8 2,4 3,8 3,13 0,6 -1,10 -4,15 -3,5 -8,8 -13,11 -6,2 -12,3 -20,3 -11,0 -21,-2 -27,-7 -6,-5 -10,-12 -12,-22z"/>
  <polygon id="112" class="fil13" points="11889,7749 11889,7623 11905,7623 11905,7749 "/>
  <path id="113" class="fil13" d="M11923 7704c0,-17 5,-30 14,-38 8,-7 18,-10 29,-10 12,0 23,4 31,12 8,8 12,20 12,34 0,12 -2,21 -6,28 -3,7 -8,12 -15,16 -7,3 -14,5 -22,5 -13,0 -23,-4 -31,-12 -8,-8 -12,-20 -12,-35zm16 0c0,11 2,20 8,26 5,6 11,9 19,9 8,0 14,-3 19,-9 5,-6 8,-15 8,-27 0,-11 -3,-20 -8,-26 -5,-5 -11,-8 -19,-8 -8,0 -14,3 -19,8 -6,6 -8,15 -8,27z"/>
  <path id="114" class="fil13" d="M12024 7757l15 2c1,5 2,8 5,10 4,3 9,5 16,5 7,0 13,-2 17,-5 4,-3 6,-7 8,-12 0,-3 1,-10 1,-20 -7,8 -15,12 -26,12 -12,0 -22,-4 -29,-13 -7,-9 -10,-20 -10,-33 0,-9 1,-17 5,-24 3,-7 7,-13 13,-17 6,-4 13,-6 22,-6 10,0 19,4 26,13l0 -11 15 0 0 79c0,14 -2,24 -5,30 -3,6 -7,11 -14,14 -6,4 -14,5 -23,5 -11,0 -19,-2 -26,-7 -7,-5 -10,-12 -10,-22zm13 -55c0,12 2,21 7,26 5,6 11,8 18,8 7,0 13,-2 18,-8 5,-5 7,-14 7,-25 0,-12 -2,-20 -7,-26 -5,-5 -11,-8 -18,-8 -7,0 -13,3 -18,8 -5,6 -7,14 -7,25z"/>
  <path id="115" class="fil13" d="M12125 7641l0 -18 16 0 0 18 -16 0zm0 108l0 -91 16 0 0 91 -16 0z"/>
  <path id="116" class="fil13" d="M12224 7716l15 2c-1,10 -6,19 -13,24 -6,6 -15,9 -25,9 -12,0 -22,-4 -30,-12 -8,-8 -11,-20 -11,-35 0,-10 1,-19 5,-26 3,-7 8,-13 14,-17 7,-3 14,-5 22,-5 10,0 18,2 25,7 6,5 10,13 12,22l-15 2c-2,-6 -4,-11 -8,-14 -4,-3 -8,-4 -13,-4 -8,0 -14,2 -19,8 -5,6 -7,14 -7,26 0,13 2,22 7,27 4,6 10,9 18,9 6,0 11,-2 15,-6 4,-4 7,-9 8,-17z"/>
  <path id="117" class="fil13" d="M12361 7738c-6,5 -11,8 -16,10 -6,2 -11,3 -18,3 -10,0 -17,-2 -23,-7 -5,-5 -8,-11 -8,-19 0,-4 1,-8 3,-12 2,-4 5,-7 8,-9 4,-2 7,-4 11,-5 3,-1 8,-2 14,-2 13,-2 22,-4 28,-6 0,-2 0,-3 0,-4 0,-6 -1,-10 -4,-13 -4,-4 -10,-5 -18,-5 -7,0 -13,1 -16,4 -4,2 -6,7 -8,13l-15 -2c1,-6 3,-12 7,-16 3,-4 7,-7 13,-9 6,-2 13,-3 21,-3 8,0 14,1 19,3 5,1 9,4 11,7 2,2 4,6 5,10 0,3 1,8 1,14l0 21c0,14 0,23 1,27 0,4 2,8 3,11l-16 0c-1,-3 -2,-7 -3,-11zm-1 -35c-6,3 -14,5 -25,6 -7,1 -11,2 -14,3 -3,2 -5,3 -6,5 -2,3 -2,5 -2,8 0,4 1,7 4,10 4,3 8,4 14,4 6,0 11,-1 16,-4 5,-2 8,-6 10,-10 2,-4 3,-9 3,-16l0 -6z"/>
  <path id="118" class="fil13" d="M12400 7749l0 -91 13 0 0 13c7,-10 17,-15 30,-15 5,0 10,1 15,3 4,2 8,4 10,8 2,3 4,7 5,11 1,3 1,8 1,15l0 56 -16 0 0 -55c0,-7 0,-11 -2,-14 -1,-4 -3,-6 -6,-8 -3,-2 -7,-3 -11,-3 -6,0 -12,2 -17,7 -5,4 -7,12 -7,23l0 50 -15 0z"/>
  <path id="119" class="fil13" d="M12557 7749l0 -11c-6,9 -15,13 -26,13 -7,0 -14,-2 -20,-6 -6,-4 -11,-9 -14,-17 -4,-7 -5,-15 -5,-24 0,-9 1,-18 4,-25 3,-8 8,-13 14,-17 6,-4 13,-6 20,-6 6,0 11,1 15,3 4,3 8,6 11,9l0 -45 15 0 0 126 -14 0zm-49 -45c0,11 2,20 7,26 5,6 11,9 18,9 6,0 12,-3 17,-9 5,-5 7,-14 7,-25 0,-12 -2,-22 -7,-28 -5,-5 -11,-8 -18,-8 -7,0 -13,3 -17,8 -5,6 -7,15 -7,27z"/>
  <path id="120" class="fil13" d="M12704 7749l0 -11c-6,9 -14,13 -26,13 -7,0 -14,-2 -20,-6 -6,-4 -11,-9 -14,-17 -3,-7 -5,-15 -5,-24 0,-9 1,-18 4,-25 4,-8 8,-13 14,-17 6,-4 13,-6 21,-6 5,0 10,1 14,3 5,3 8,6 11,9l0 -45 15 0 0 126 -14 0zm-49 -45c0,11 2,20 7,26 5,6 11,9 18,9 7,0 12,-3 17,-9 5,-5 7,-14 7,-25 0,-12 -2,-22 -7,-28 -5,-5 -11,-8 -18,-8 -7,0 -13,3 -17,8 -5,6 -7,15 -7,27z"/>
  <path id="121" class="fil13" d="M12805 7720l16 2c-2,9 -7,16 -14,22 -6,5 -15,7 -26,7 -13,0 -24,-4 -32,-12 -7,-8 -11,-20 -11,-35 0,-15 4,-27 12,-35 7,-9 18,-13 30,-13 13,0 23,4 30,12 8,9 12,20 12,35 0,1 0,3 0,5l-68 0c0,10 3,17 8,23 5,5 12,8 19,8 6,0 11,-2 15,-5 4,-3 7,-8 9,-14zm-51 -25l51 0c0,-8 -2,-14 -5,-17 -5,-6 -12,-9 -20,-9 -7,0 -13,2 -17,7 -5,4 -8,11 -9,19z"/>
  <path id="122" class="fil13" d="M12866 7749l-35 -91 17 0 20 55c2,6 4,12 5,18 2,-5 4,-11 6,-17l21 -56 16 0 -35 91 -15 0z"/>
  <path id="123" class="fil13" d="M12992 7720l16 2c-3,9 -8,16 -14,22 -7,5 -16,7 -26,7 -14,0 -24,-4 -32,-12 -8,-8 -12,-20 -12,-35 0,-15 4,-27 12,-35 8,-9 18,-13 31,-13 12,0 22,4 30,12 7,9 11,20 11,35 0,1 0,3 0,5l-68 0c0,10 3,17 8,23 6,5 12,8 20,8 5,0 10,-2 14,-5 4,-3 7,-8 10,-14zm-51 -25l51 0c-1,-8 -3,-14 -6,-17 -5,-6 -11,-9 -19,-9 -7,0 -13,2 -18,7 -5,4 -8,11 -8,19z"/>
  <polygon id="124" class="fil13" points="13027,7749 13027,7623 13042,7623 13042,7749 "/>
  <path id="125" class="fil13" d="M13061 7704c0,-17 4,-30 14,-38 8,-7 17,-10 29,-10 12,0 22,4 30,12 8,8 12,20 12,34 0,12 -1,21 -5,28 -3,7 -9,12 -15,16 -7,3 -14,5 -22,5 -13,0 -24,-4 -32,-12 -7,-8 -11,-20 -11,-35zm15 0c0,11 3,20 8,26 5,6 12,9 20,9 7,0 14,-3 19,-9 5,-6 7,-15 7,-27 0,-11 -2,-20 -7,-26 -5,-5 -12,-8 -19,-8 -8,0 -15,3 -20,8 -5,6 -8,15 -8,27z"/>
  <path id="126" class="fil13" d="M13165 7784l0 -126 14 0 0 12c3,-5 7,-8 11,-11 4,-2 9,-3 15,-3 8,0 15,2 21,6 6,4 10,10 13,17 3,7 5,15 5,24 0,9 -2,18 -5,25 -3,8 -8,13 -15,17 -6,4 -13,6 -20,6 -5,0 -10,-1 -14,-3 -4,-2 -7,-5 -10,-8l0 44 -15 0zm14 -80c0,12 2,21 7,26 5,6 10,9 17,9 7,0 13,-3 18,-9 5,-6 7,-15 7,-27 0,-12 -2,-21 -7,-26 -5,-6 -11,-9 -17,-9 -7,0 -13,3 -18,9 -5,6 -7,15 -7,27z"/>
  <path id="127" class="fil13" d="M13263 7749l0 -91 14 0 0 13c2,-5 6,-8 11,-11 5,-3 10,-4 16,-4 7,0 13,1 17,4 4,3 7,7 9,12 7,-11 17,-16 28,-16 10,0 17,2 21,7 5,5 8,13 8,24l0 62 -16 0 0 -57c0,-6 0,-11 -1,-14 -1,-2 -3,-5 -6,-6 -2,-2 -5,-3 -9,-3 -7,0 -12,2 -16,7 -4,4 -7,11 -7,20l0 53 -15 0 0 -59c0,-7 -1,-12 -4,-16 -2,-3 -7,-5 -12,-5 -5,0 -9,1 -12,4 -4,2 -7,5 -8,10 -2,4 -3,11 -3,19l0 47 -15 0z"/>
  <path id="128" class="fil13" d="M13472 7720l16 2c-2,9 -7,16 -14,22 -7,5 -15,7 -26,7 -13,0 -24,-4 -32,-12 -8,-8 -12,-20 -12,-35 0,-15 4,-27 12,-35 8,-9 18,-13 31,-13 12,0 22,4 30,12 8,9 12,20 12,35 0,1 0,3 0,5l-69 0c1,10 4,17 9,23 5,5 11,8 19,8 6,0 10,-2 14,-5 4,-3 8,-8 10,-14zm-51 -25l51 0c0,-8 -2,-14 -6,-17 -5,-6 -11,-9 -19,-9 -7,0 -13,2 -18,7 -5,4 -7,11 -8,19z"/>
  <path id="129" class="fil13" d="M13508 7749l0 -91 14 0 0 13c6,-10 16,-15 29,-15 5,0 10,1 15,3 4,2 8,4 10,8 3,3 4,7 5,11 1,3 1,8 1,15l0 56 -16 0 0 -55c0,-7 0,-11 -1,-14 -2,-4 -4,-6 -7,-8 -3,-2 -6,-3 -11,-3 -6,0 -12,2 -17,7 -4,4 -7,12 -7,23l0 50 -15 0z"/>
  <path id="130" class="fil13" d="M13639 7735l3 14c-5,1 -9,2 -12,2 -6,0 -10,-1 -13,-3 -3,-2 -5,-4 -7,-7 -1,-3 -2,-9 -2,-18l0 -53 -11 0 0 -12 11 0 0 -23 16 -9 0 32 15 0 0 12 -15 0 0 53c0,5 0,8 1,9 0,1 1,2 2,3 2,1 3,1 6,1 1,0 4,0 6,-1z"/>
  <path id="131" class="fil13" d="M7676 7917l16 2c-3,9 -7,16 -14,22 -7,5 -16,7 -26,7 -14,0 -24,-4 -32,-12 -8,-8 -12,-20 -12,-35 0,-15 4,-27 12,-35 8,-9 18,-13 31,-13 12,0 22,4 30,12 8,9 11,20 11,35 0,1 0,3 0,5l-68 0c1,10 4,17 9,23 5,5 11,8 19,8 6,0 10,-2 14,-5 4,-3 8,-8 10,-14zm-51 -25l51 0c-1,-8 -3,-14 -6,-17 -5,-6 -11,-9 -19,-9 -7,0 -13,2 -18,7 -5,5 -7,11 -8,19z"/>
  <path id="132" class="fil13" d="M7701 7946l33 -47 -31 -44 20 0 14 21c3,5 5,8 6,10 3,-3 5,-7 7,-10l16 -21 19 0 -32 44 34 47 -19 0 -19 -28 -5 -7 -24 35 -19 0z"/>
  <path id="133" class="fil13" d="M7800 7981l0 -126 14 0 0 12c3,-5 7,-8 11,-11 4,-2 9,-3 15,-3 8,0 15,2 21,6 6,4 11,10 14,17 3,7 4,15 4,24 0,9 -2,18 -5,25 -3,8 -8,13 -15,17 -6,4 -13,6 -20,6 -5,0 -10,-1 -14,-3 -4,-2 -7,-5 -10,-8l0 44 -15 0zm14 -80c0,12 2,21 7,26 5,6 11,9 17,9 7,0 13,-3 18,-9 5,-6 7,-15 7,-27 0,-12 -2,-20 -7,-26 -5,-6 -10,-9 -17,-9 -7,0 -12,3 -17,9 -6,6 -8,15 -8,27z"/>
  <path id="134" class="fil13" d="M7960 7917l16 2c-2,9 -7,16 -14,22 -6,5 -15,7 -26,7 -13,0 -24,-4 -32,-12 -7,-8 -11,-20 -11,-35 0,-15 4,-27 12,-35 8,-9 18,-13 30,-13 13,0 23,4 30,12 8,9 12,20 12,35 0,1 0,3 0,5l-68 0c0,10 3,17 8,23 5,5 12,8 19,8 6,0 11,-2 15,-5 4,-3 7,-8 9,-14zm-50 -25l50 0c0,-8 -2,-14 -5,-17 -5,-6 -12,-9 -20,-9 -7,0 -13,2 -17,7 -5,5 -8,11 -8,19z"/>
  <path id="135" class="fil13" d="M7996 7946l0 -91 14 0 0 14c3,-7 7,-11 10,-13 3,-2 6,-3 10,-3 5,0 10,2 16,5l-6 14c-4,-2 -8,-3 -11,-3 -4,0 -7,1 -9,3 -3,2 -5,5 -6,8 -2,6 -3,12 -3,19l0 47 -15 0z"/>
  <path id="136" class="fil13" d="M8088 7933l3 13c-5,1 -9,2 -12,2 -6,0 -10,-1 -13,-3 -3,-2 -5,-4 -7,-7 -1,-3 -2,-9 -2,-18l0 -53 -11 0 0 -12 11 0 0 -23 16 -9 0 32 15 0 0 12 -15 0 0 53c0,5 0,8 1,9 0,1 1,2 2,3 2,1 3,1 6,1 1,0 4,0 6,0z"/>
  <path id="137" class="fil13" d="M8104 7838l0 -18 15 0 0 18 -15 0zm0 108l0 -91 15 0 0 91 -15 0z"/>
  <path id="138" class="fil13" d="M8137 7919l15 -2c1,6 3,10 7,14 4,3 10,5 17,5 7,0 12,-2 16,-5 3,-3 5,-6 5,-10 0,-3 -2,-6 -5,-8 -2,-2 -7,-3 -16,-5 -11,-3 -19,-6 -23,-8 -5,-2 -8,-5 -10,-9 -2,-3 -4,-7 -4,-12 0,-4 1,-8 3,-11 2,-4 5,-6 8,-9 2,-2 5,-3 10,-4 4,-1 8,-2 13,-2 7,0 13,1 19,3 5,2 9,5 12,8 2,4 4,9 5,15l-15 2c-1,-5 -3,-9 -6,-11 -3,-3 -8,-4 -14,-4 -7,0 -12,1 -15,3 -3,2 -5,5 -5,8 0,2 1,4 2,6 2,1 3,3 6,4 2,1 6,2 14,4 11,3 18,5 23,7 4,2 8,5 10,8 3,4 4,8 4,13 0,6 -2,10 -5,15 -3,5 -7,8 -13,11 -6,2 -12,3 -19,3 -12,0 -21,-2 -27,-7 -7,-5 -11,-12 -12,-22z"/>
  <path id="139" class="fil13" d="M8294 7917l16 2c-3,9 -8,16 -14,22 -7,5 -16,7 -27,7 -13,0 -23,-4 -31,-12 -8,-8 -12,-20 -12,-35 0,-15 4,-27 12,-35 8,-9 18,-13 31,-13 12,0 22,4 30,12 7,9 11,20 11,35 0,1 0,3 0,5l-68 0c0,10 3,17 8,23 5,5 12,8 19,8 6,0 11,-2 15,-5 4,-3 7,-8 10,-14zm-51 -25l51 0c-1,-8 -3,-14 -6,-17 -5,-6 -11,-9 -19,-9 -7,0 -13,2 -18,7 -5,5 -8,11 -8,19z"/>
  <path id="140" class="fil13" d="M8375 7954l15 2c1,5 3,8 6,10 3,3 9,5 15,5 8,0 13,-2 17,-5 4,-3 7,-7 8,-12 1,-3 1,-10 1,-20 -7,8 -15,12 -25,12 -13,0 -23,-4 -29,-13 -7,-9 -11,-20 -11,-33 0,-9 2,-17 5,-24 3,-7 8,-13 14,-17 6,-4 13,-6 21,-6 11,0 20,4 27,13l0 -11 14 0 0 79c0,14 -2,24 -5,30 -2,6 -7,11 -13,14 -7,4 -14,5 -23,5 -11,0 -20,-2 -27,-7 -7,-5 -10,-12 -10,-22zm13 -55c0,12 2,21 7,26 5,6 11,9 18,9 7,0 13,-3 18,-9 5,-5 7,-14 7,-25 0,-12 -2,-20 -7,-26 -5,-5 -11,-8 -18,-8 -7,0 -13,3 -18,8 -5,6 -7,14 -7,25z"/>
  <path id="141" class="fil13" d="M8536 7935c-6,5 -11,8 -17,10 -5,2 -11,3 -17,3 -10,0 -17,-2 -23,-7 -5,-5 -8,-11 -8,-19 0,-4 1,-8 3,-12 2,-4 5,-7 8,-9 3,-2 7,-4 11,-5 3,-1 8,-2 14,-2 13,-2 22,-4 28,-6 0,-2 0,-3 0,-4 0,-6 -2,-10 -5,-13 -3,-3 -9,-5 -17,-5 -8,0 -13,1 -16,4 -4,2 -6,7 -8,13l-15 -2c1,-6 3,-12 7,-16 3,-4 7,-7 13,-9 6,-2 13,-3 21,-3 8,0 14,1 19,3 5,2 9,4 11,7 2,2 4,6 5,10 0,3 1,8 1,14l0 21c0,14 0,23 1,27 0,4 1,8 3,11l-16 0c-1,-3 -2,-7 -3,-11zm-1 -34c-6,2 -14,4 -26,5 -6,1 -10,2 -13,3 -3,2 -5,3 -6,5 -2,3 -2,5 -2,8 0,4 1,7 4,10 3,3 8,4 14,4 6,0 11,-1 16,-4 5,-2 8,-6 10,-10 2,-4 3,-9 3,-16l0 -5z"/>
  <path id="142" class="fil13" d="M8599 7946l-34 -91 17 0 19 55c2,6 4,12 6,18 1,-5 3,-11 6,-17l20 -56 16 0 -35 91 -15 0z"/>
  <path id="143" class="fil13" d="M8725 7917l16 2c-2,9 -7,16 -14,22 -7,5 -15,7 -26,7 -13,0 -24,-4 -32,-12 -8,-8 -11,-20 -11,-35 0,-15 3,-27 11,-35 8,-9 19,-13 31,-13 12,0 22,4 30,12 8,9 12,20 12,35 0,1 0,3 0,5l-69 0c1,10 4,17 9,23 5,5 11,8 19,8 6,0 11,-2 15,-5 4,-3 7,-8 9,-14zm-51 -25l51 0c0,-8 -2,-14 -6,-17 -5,-6 -11,-9 -19,-9 -7,0 -13,2 -18,7 -5,5 -7,11 -8,19z"/>
  <path id="144" class="fil13" d="M8870 7946l0 -13c-8,10 -17,15 -29,15 -6,0 -11,-1 -16,-3 -4,-2 -8,-4 -10,-8 -2,-3 -4,-7 -5,-11 0,-3 -1,-8 -1,-15l0 -56 16 0 0 51c0,8 0,13 1,16 1,4 3,7 6,9 3,3 7,4 12,4 4,0 9,-1 13,-4 4,-2 7,-5 8,-9 2,-4 3,-10 3,-18l0 -49 15 0 0 91 -13 0z"/>
  <path id="145" class="fil13" d="M8902 7919l15 -2c1,6 3,10 7,14 4,3 10,5 17,5 7,0 12,-2 16,-5 3,-3 5,-6 5,-10 0,-3 -2,-6 -5,-8 -2,-2 -7,-3 -16,-5 -11,-3 -19,-6 -23,-8 -5,-2 -8,-5 -10,-9 -3,-3 -4,-7 -4,-12 0,-4 1,-8 3,-11 2,-4 5,-6 8,-9 2,-2 5,-3 10,-4 4,-1 8,-2 13,-2 7,0 13,1 19,3 5,2 9,5 12,8 2,4 4,9 5,15l-15 2c-1,-5 -3,-9 -6,-11 -3,-3 -8,-4 -14,-4 -7,0 -12,1 -15,3 -3,2 -5,5 -5,8 0,2 1,4 2,6 1,1 3,3 6,4 2,1 6,2 14,4 11,3 18,5 23,7 4,2 7,5 10,8 2,4 4,8 4,13 0,6 -2,10 -5,15 -3,5 -7,8 -13,11 -6,2 -12,3 -19,3 -12,0 -21,-2 -27,-7 -7,-5 -11,-12 -12,-22z"/>
  <path id="146" class="fil13" d="M9079 7933l2 13c-4,1 -8,2 -12,2 -5,0 -10,-1 -13,-3 -3,-2 -5,-4 -6,-7 -2,-3 -2,-9 -2,-18l0 -53 -12 0 0 -12 12 0 0 -23 15 -9 0 32 16 0 0 12 -16 0 0 53c0,5 0,8 1,9 1,1 1,2 3,3 1,1 3,1 5,1 2,0 4,0 7,0z"/>
  <path id="147" class="fil13" d="M9094 7946l0 -126 16 0 0 46c7,-9 16,-13 27,-13 7,0 12,1 17,4 5,3 9,6 11,11 2,5 3,12 3,20l0 58 -15 0 0 -57c0,-8 -2,-14 -5,-17 -4,-4 -8,-6 -14,-6 -5,0 -9,1 -13,4 -4,2 -7,5 -9,10 -2,4 -2,9 -2,16l0 50 -16 0z"/>
  <path id="148" class="fil13" d="M9255 7917l16 2c-3,9 -8,16 -14,22 -7,5 -16,7 -26,7 -14,0 -24,-4 -32,-12 -8,-8 -12,-20 -12,-35 0,-15 4,-27 12,-35 8,-9 18,-13 31,-13 12,0 22,4 30,12 7,9 11,20 11,35 0,1 0,3 0,5l-68 0c1,10 3,17 8,23 6,5 12,8 20,8 5,0 10,-2 14,-5 4,-3 7,-8 10,-14zm-51 -25l51 0c-1,-8 -3,-14 -6,-17 -5,-6 -11,-9 -19,-9 -7,0 -13,2 -18,7 -5,5 -8,11 -8,19z"/>
  <path id="149" class="fil13" d="M9343 7946l0 -79 -14 0 0 -12 14 0 0 -10c0,-6 1,-11 2,-14 1,-4 4,-7 7,-9 4,-3 9,-4 16,-4 5,0 9,1 15,2l-3 13c-3,0 -6,-1 -9,-1 -4,0 -8,1 -10,3 -2,2 -3,6 -3,11l0 9 18 0 0 12 -18 0 0 79 -15 0z"/>
  <path id="150" class="fil13" d="M9388 7946l0 -91 14 0 0 14c4,-7 7,-11 10,-13 3,-2 6,-3 10,-3 5,0 10,2 16,5l-6 14c-3,-2 -7,-3 -11,-3 -3,0 -6,1 -9,3 -3,2 -5,5 -6,8 -2,6 -2,12 -2,19l0 47 -16 0z"/>
  <path id="151" class="fil13" d="M9509 7917l17 2c-3,9 -8,16 -14,22 -7,5 -16,7 -27,7 -13,0 -24,-4 -31,-12 -8,-8 -12,-20 -12,-35 0,-15 4,-27 12,-35 8,-9 18,-13 31,-13 12,0 22,4 29,12 8,9 12,20 12,35 0,1 0,3 0,5l-68 0c0,10 3,17 8,23 5,5 12,8 19,8 6,0 11,-2 15,-5 4,-3 7,-8 9,-14zm-50 -25l51 0c-1,-8 -3,-14 -6,-17 -5,-6 -12,-9 -19,-9 -7,0 -13,2 -18,7 -5,5 -8,11 -8,19z"/>
  <path id="152" class="fil13" d="M9608 7917l16 2c-3,9 -8,16 -14,22 -7,5 -16,7 -27,7 -13,0 -23,-4 -31,-12 -8,-8 -12,-20 -12,-35 0,-15 4,-27 12,-35 8,-9 18,-13 31,-13 12,0 22,4 30,12 7,9 11,20 11,35 0,1 0,3 0,5l-68 0c0,10 3,17 8,23 5,5 12,8 19,8 6,0 11,-2 15,-5 4,-3 7,-8 10,-14zm-51 -25l51 0c-1,-8 -3,-14 -6,-17 -5,-6 -11,-9 -19,-9 -7,0 -13,2 -18,7 -5,5 -8,11 -8,19z"/>
  <path id="153" class="fil13" d="M9702 7946l0 -11c-5,9 -14,13 -25,13 -8,0 -14,-2 -20,-6 -6,-4 -11,-9 -15,-16 -3,-8 -5,-16 -5,-25 0,-9 2,-18 5,-25 3,-8 8,-13 14,-17 6,-4 13,-6 20,-6 6,0 10,1 15,3 4,3 8,6 10,10l0 -46 16 0 0 126 -15 0zm-49 -45c0,11 3,20 8,26 5,6 10,9 17,9 7,0 13,-3 18,-9 4,-5 7,-14 7,-25 0,-12 -3,-22 -8,-27 -4,-6 -10,-9 -17,-9 -7,0 -13,3 -18,8 -4,6 -7,15 -7,27z"/>
  <path id="154" class="fil13" d="M9735 7901c0,-17 5,-30 15,-38 7,-7 17,-10 28,-10 13,0 23,4 31,12 8,8 12,20 12,34 0,12 -2,21 -5,28 -4,7 -9,12 -16,16 -6,3 -14,5 -22,5 -12,0 -23,-4 -31,-12 -8,-8 -12,-20 -12,-35zm16 0c0,11 3,20 8,26 5,6 12,9 19,9 8,0 15,-3 20,-9 5,-6 7,-15 7,-27 0,-11 -2,-20 -7,-25 -6,-6 -12,-9 -20,-9 -7,0 -14,3 -19,8 -5,6 -8,15 -8,27z"/>
  <path id="155" class="fil13" d="M9839 7946l0 -91 14 0 0 13c3,-5 7,-8 12,-11 5,-3 10,-4 16,-4 7,0 12,1 17,4 4,3 7,7 9,12 7,-11 17,-16 28,-16 9,0 16,2 21,7 5,5 8,13 8,24l0 62 -16 0 0 -57c0,-6 0,-11 -1,-14 -1,-2 -3,-5 -6,-6 -3,-2 -6,-3 -9,-3 -7,0 -12,2 -16,7 -5,4 -7,11 -7,20l0 53 -15 0 0 -59c0,-7 -2,-12 -4,-16 -3,-3 -7,-5 -12,-5 -5,0 -9,1 -13,4 -3,2 -6,5 -8,10 -1,4 -2,11 -2,19l0 47 -16 0z"/>
  <path id="156" class="fil13" d="M10069 7933l2 13c-4,1 -8,2 -12,2 -5,0 -9,-1 -13,-3 -3,-2 -5,-4 -6,-7 -1,-3 -2,-9 -2,-18l0 -53 -11 0 0 -12 11 0 0 -23 16 -9 0 32 15 0 0 12 -15 0 0 53c0,5 0,8 0,9 1,1 2,2 3,3 1,1 3,1 5,1 2,0 4,0 7,0z"/>
  <path id="157" class="fil13" d="M10079 7901c0,-17 4,-30 14,-38 8,-7 17,-10 28,-10 13,0 23,4 31,12 8,8 12,20 12,34 0,12 -1,21 -5,28 -4,7 -9,12 -15,16 -7,3 -15,5 -23,5 -12,0 -23,-4 -31,-12 -8,-8 -11,-20 -11,-35zm15 0c0,11 3,20 8,26 5,6 12,9 19,9 8,0 15,-3 20,-9 5,-6 7,-15 7,-27 0,-11 -2,-20 -7,-25 -5,-6 -12,-9 -20,-9 -7,0 -14,3 -19,8 -5,6 -8,15 -8,27z"/>
  <path id="158" class="fil13" d="M10291 7913l15 2c-1,10 -5,19 -12,24 -7,6 -16,9 -26,9 -12,0 -22,-4 -30,-12 -7,-8 -11,-20 -11,-35 0,-10 2,-19 5,-26 3,-7 8,-13 15,-17 6,-3 14,-5 22,-5 9,0 18,2 24,7 6,5 10,13 12,22l-15 2c-1,-6 -4,-11 -8,-14 -3,-3 -8,-4 -13,-4 -8,0 -14,2 -19,8 -5,6 -7,14 -7,27 0,12 2,21 7,26 5,6 11,9 18,9 6,0 11,-2 16,-6 4,-4 6,-9 7,-17z"/>
  <path id="159" class="fil13" d="M10320 7946l0 -91 13 0 0 14c4,-7 7,-11 10,-13 3,-2 7,-3 10,-3 6,0 11,2 16,5l-5 14c-4,-2 -8,-3 -12,-3 -3,0 -6,1 -9,3 -2,2 -4,5 -5,8 -2,6 -3,12 -3,19l0 47 -15 0z"/>
  <path id="160" class="fil13" d="M10441 7917l16 2c-3,9 -7,16 -14,22 -7,5 -16,7 -26,7 -14,0 -24,-4 -32,-12 -8,-8 -12,-20 -12,-35 0,-15 4,-27 12,-35 8,-9 18,-13 31,-13 12,0 22,4 30,12 8,9 11,20 11,35 0,1 0,3 0,5l-68 0c1,10 4,17 9,23 5,5 11,8 19,8 5,0 10,-2 14,-5 4,-3 8,-8 10,-14zm-51 -25l51 0c-1,-8 -3,-14 -6,-17 -5,-6 -11,-9 -19,-9 -7,0 -13,2 -18,7 -5,5 -7,11 -8,19z"/>
  <path id="161" class="fil13" d="M10536 7935c-5,5 -11,8 -16,10 -6,2 -11,3 -17,3 -11,0 -18,-2 -24,-7 -5,-5 -8,-11 -8,-19 0,-4 1,-8 3,-12 2,-4 5,-7 8,-9 4,-2 7,-4 11,-5 4,-1 8,-2 14,-2 13,-2 22,-4 28,-6 0,-2 0,-3 0,-4 0,-6 -1,-10 -4,-13 -4,-3 -10,-5 -18,-5 -7,0 -13,1 -16,4 -4,2 -6,7 -8,13l-15 -2c1,-6 4,-12 7,-16 3,-4 7,-7 13,-9 6,-2 13,-3 21,-3 8,0 14,1 19,3 5,2 9,4 11,7 2,2 4,6 5,10 1,3 1,8 1,14l0 21c0,14 0,23 1,27 0,4 2,8 4,11l-17 0c-1,-3 -2,-7 -3,-11zm-1 -34c-6,2 -14,4 -25,5 -7,1 -11,2 -14,3 -3,2 -5,3 -6,5 -1,3 -2,5 -2,8 0,4 1,7 5,10 3,3 7,4 13,4 6,0 12,-1 16,-4 5,-2 8,-6 10,-10 2,-4 3,-9 3,-16l0 -5z"/>
  <path id="162" class="fil13" d="M10608 7933l2 13c-4,1 -8,2 -11,2 -6,0 -10,-1 -13,-3 -3,-2 -6,-4 -7,-7 -1,-3 -2,-9 -2,-18l0 -53 -11 0 0 -12 11 0 0 -23 16 -9 0 32 15 0 0 12 -15 0 0 53c0,5 0,8 1,9 0,1 1,2 2,3 1,1 3,1 6,1 1,0 4,0 6,0z"/>
  <path id="163" class="fil13" d="M10686 7917l16 2c-2,9 -7,16 -14,22 -7,5 -15,7 -26,7 -13,0 -24,-4 -32,-12 -8,-8 -11,-20 -11,-35 0,-15 3,-27 11,-35 8,-9 19,-13 31,-13 12,0 22,4 30,12 8,9 12,20 12,35 0,1 0,3 0,5l-69 0c1,10 4,17 9,23 5,5 11,8 19,8 6,0 11,-2 15,-5 4,-3 7,-8 9,-14zm-51 -25l51 0c0,-8 -2,-14 -6,-17 -5,-6 -11,-9 -19,-9 -7,0 -13,2 -18,7 -5,5 -7,11 -8,19z"/>
  <path id="164" class="fil13" d="M10831 7935c-6,5 -12,8 -17,10 -5,2 -11,3 -17,3 -10,0 -18,-2 -23,-7 -6,-5 -9,-11 -9,-19 0,-4 1,-8 4,-12 2,-4 4,-7 8,-9 3,-2 7,-4 11,-5 3,-1 7,-2 14,-2 12,-2 21,-4 27,-6 0,-2 0,-3 0,-4 0,-6 -1,-10 -4,-13 -4,-3 -10,-5 -18,-5 -7,0 -13,1 -16,4 -4,2 -6,7 -8,13l-15 -2c1,-6 4,-12 7,-16 3,-4 8,-7 14,-9 6,-2 13,-3 20,-3 8,0 15,1 20,3 4,2 8,4 10,7 3,2 4,6 5,10 1,3 1,8 1,14l0 21c0,14 0,23 1,27 1,4 2,8 4,11l-16 0c-2,-3 -3,-7 -3,-11zm-2 -34c-5,2 -14,4 -25,5 -7,1 -11,2 -14,3 -2,2 -4,3 -6,5 -1,3 -2,5 -2,8 0,4 2,7 5,10 3,3 7,4 13,4 6,0 12,-1 16,-4 5,-2 9,-6 11,-10 1,-4 2,-9 2,-16l0 -5z"/>
  <path id="165" class="fil13" d="M10869 7946l0 -91 14 0 0 13c6,-10 16,-15 29,-15 5,0 10,1 15,3 5,2 8,4 10,8 3,3 4,7 5,11 1,3 1,8 1,15l0 56 -15 0 0 -55c0,-7 -1,-11 -2,-14 -1,-4 -4,-6 -7,-8 -3,-2 -6,-3 -10,-3 -7,0 -13,2 -17,7 -5,4 -8,12 -8,23l0 50 -15 0z"/>
  <path id="166" class="fil13" d="M11076 7935c-6,5 -12,8 -17,10 -5,2 -11,3 -17,3 -10,0 -18,-2 -23,-7 -6,-5 -8,-11 -8,-19 0,-4 1,-8 3,-12 2,-4 4,-7 8,-9 3,-2 7,-4 11,-5 3,-1 8,-2 14,-2 12,-2 22,-4 27,-6 0,-2 1,-3 1,-4 0,-6 -2,-10 -5,-13 -4,-3 -10,-5 -18,-5 -7,0 -12,1 -16,4 -3,2 -6,7 -8,13l-15 -2c2,-6 4,-12 7,-16 3,-4 8,-7 14,-9 6,-2 13,-3 21,-3 8,0 14,1 19,3 5,2 8,4 11,7 2,2 4,6 4,10 1,3 1,8 1,14l0 21c0,14 1,23 1,27 1,4 2,8 4,11l-16 0c-2,-3 -3,-7 -3,-11zm-1 -34c-6,2 -15,4 -26,5 -6,1 -11,2 -13,3 -3,2 -5,3 -7,5 -1,3 -2,5 -2,8 0,4 2,7 5,10 3,3 8,4 14,4 6,0 11,-1 16,-4 4,-2 8,-6 10,-10 2,-4 2,-9 2,-16l1 -5z"/>
  <path id="167" class="fil13" d="M11114 7981l0 -126 14 0 0 12c3,-5 7,-8 11,-11 5,-2 10,-3 16,-3 7,0 14,2 20,6 6,4 11,10 14,17 3,7 4,15 4,24 0,9 -1,18 -5,25 -3,8 -8,13 -14,17 -7,4 -13,6 -20,6 -6,0 -10,-1 -14,-3 -4,-2 -8,-5 -10,-8l0 44 -16 0zm14 -80c0,12 3,21 7,26 5,6 11,9 18,9 6,0 12,-3 17,-9 5,-6 8,-15 8,-27 0,-12 -3,-20 -8,-26 -4,-6 -10,-9 -17,-9 -6,0 -12,3 -17,9 -5,6 -8,15 -8,27z"/>
  <path id="168" class="fil13" d="M11212 7981l0 -126 14 0 0 12c4,-5 7,-8 12,-11 4,-2 9,-3 15,-3 8,0 14,2 20,6 6,4 11,10 14,17 3,7 5,15 5,24 0,9 -2,18 -6,25 -3,8 -8,13 -14,17 -7,4 -13,6 -20,6 -5,0 -10,-1 -14,-3 -4,-2 -8,-5 -10,-8l0 44 -16 0zm14 -80c0,12 3,21 7,26 5,6 11,9 18,9 7,0 12,-3 17,-9 5,-6 8,-15 8,-27 0,-12 -3,-20 -8,-26 -4,-6 -10,-9 -17,-9 -6,0 -12,3 -17,9 -5,6 -8,15 -8,27z"/>
  <path id="169" class="fil13" d="M11376 7946l-28 -91 16 0 15 53 5 19c0,-1 2,-7 5,-19l14 -53 16 0 14 53 4 17 6 -17 16 -53 15 0 -29 91 -16 0 -15 -54 -3 -16 -19 70 -16 0z"/>
  <path id="170" class="fil13" d="M11549 7917l16 2c-2,9 -7,16 -14,22 -7,5 -15,7 -26,7 -13,0 -24,-4 -32,-12 -8,-8 -11,-20 -11,-35 0,-15 3,-27 11,-35 8,-9 19,-13 31,-13 12,0 22,4 30,12 8,9 12,20 12,35 0,1 0,3 0,5l-69 0c1,10 4,17 9,23 5,5 11,8 19,8 6,0 11,-2 15,-5 4,-3 7,-8 9,-14zm-51 -25l51 0c0,-8 -2,-14 -6,-17 -5,-6 -11,-9 -19,-9 -7,0 -13,2 -18,7 -5,5 -7,11 -8,19z"/>
  <path id="171" class="fil13" d="M11694 7913l15 2c-2,10 -6,19 -13,24 -7,6 -15,9 -25,9 -13,0 -23,-4 -30,-12 -8,-8 -12,-20 -12,-35 0,-10 2,-19 5,-26 3,-7 8,-13 15,-17 7,-3 14,-5 22,-5 10,0 18,2 24,7 6,5 11,13 12,22l-15 2c-1,-6 -4,-11 -7,-14 -4,-3 -8,-4 -14,-4 -7,0 -14,2 -19,8 -5,6 -7,14 -7,27 0,12 2,21 7,26 5,6 11,9 19,9 6,0 11,-2 15,-6 4,-4 6,-9 8,-17z"/>
  <path id="172" class="fil13" d="M11782 7935c-6,5 -12,8 -17,10 -5,2 -11,3 -17,3 -10,0 -18,-2 -23,-7 -6,-5 -8,-11 -8,-19 0,-4 1,-8 3,-12 2,-4 4,-7 8,-9 3,-2 7,-4 11,-5 3,-1 8,-2 14,-2 12,-2 22,-4 27,-6 0,-2 1,-3 1,-4 0,-6 -2,-10 -5,-13 -4,-3 -10,-5 -18,-5 -7,0 -12,1 -16,4 -3,2 -6,7 -8,13l-15 -2c2,-6 4,-12 7,-16 3,-4 8,-7 14,-9 6,-2 13,-3 21,-3 8,0 14,1 19,3 5,2 8,4 11,7 2,2 4,6 4,10 1,3 1,8 1,14l0 21c0,14 1,23 1,27 1,4 2,8 4,11l-16 0c-2,-3 -3,-7 -3,-11zm-1 -34c-6,2 -15,4 -26,5 -6,1 -11,2 -13,3 -3,2 -5,3 -7,5 -1,3 -2,5 -2,8 0,4 2,7 5,10 3,3 8,4 14,4 6,0 11,-1 16,-4 4,-2 8,-6 10,-10 2,-4 2,-9 2,-16l1 -5z"/>
  <path id="173" class="fil13" d="M11820 7946l0 -91 14 0 0 13c7,-10 16,-15 29,-15 6,0 11,1 15,3 5,2 8,4 11,8 2,3 4,7 4,11 1,3 1,8 1,15l0 56 -15 0 0 -55c0,-7 -1,-11 -2,-14 -1,-4 -3,-6 -6,-8 -3,-2 -7,-3 -11,-3 -7,0 -12,2 -17,7 -5,4 -7,12 -7,23l0 50 -16 0z"/>
  <path id="174" class="fil13" d="M12027 7935c-6,5 -11,8 -17,10 -5,2 -11,3 -17,3 -10,0 -18,-2 -23,-7 -5,-5 -8,-11 -8,-19 0,-4 1,-8 3,-12 2,-4 5,-7 8,-9 3,-2 7,-4 11,-5 3,-1 8,-2 14,-2 12,-2 22,-4 28,-6 0,-2 0,-3 0,-4 0,-6 -2,-10 -5,-13 -4,-3 -10,-5 -17,-5 -8,0 -13,1 -17,4 -3,2 -6,7 -7,13l-15 -2c1,-6 3,-12 6,-16 4,-4 8,-7 14,-9 6,-2 13,-3 21,-3 8,0 14,1 19,3 5,2 9,4 11,7 2,2 4,6 5,10 0,3 0,8 0,14l0 21c0,14 1,23 1,27 1,4 2,8 4,11l-16 0c-2,-3 -3,-7 -3,-11zm-1 -34c-6,2 -14,4 -26,5 -6,1 -11,2 -13,3 -3,2 -5,3 -6,5 -2,3 -3,5 -3,8 0,4 2,7 5,10 3,3 8,4 14,4 6,0 11,-1 16,-4 5,-2 8,-6 10,-10 2,-4 3,-9 3,-16l0 -5z"/>
  <polygon id="175" class="fil13" points="12065,7946 12065,7820 12080,7820 12080,7946 "/>
  <polygon id="176" class="fil13" points="12104,7946 12104,7820 12120,7820 12120,7946 "/>
  <path id="177" class="fil13" d="M12193 7981l0 -126 14 0 0 12c3,-5 7,-8 11,-11 4,-2 9,-3 15,-3 8,0 15,2 21,6 6,4 10,10 13,17 3,7 5,15 5,24 0,9 -2,18 -5,25 -3,8 -8,13 -15,17 -6,4 -13,6 -20,6 -5,0 -10,-1 -14,-3 -4,-2 -7,-5 -10,-8l0 44 -15 0zm14 -80c0,12 2,21 7,26 5,6 10,9 17,9 7,0 13,-3 18,-9 5,-6 7,-15 7,-27 0,-12 -2,-20 -7,-26 -5,-6 -11,-9 -17,-9 -7,0 -13,3 -18,9 -5,6 -7,15 -7,27z"/>
  <path id="178" class="fil13" d="M12291 7946l0 -91 14 0 0 14c3,-7 6,-11 9,-13 3,-2 7,-3 10,-3 6,0 11,2 16,5l-5 14c-4,-2 -8,-3 -12,-3 -3,0 -6,1 -9,3 -2,2 -4,5 -5,8 -2,6 -3,12 -3,19l0 47 -15 0z"/>
  <path id="179" class="fil13" d="M12344 7901c0,-17 4,-30 14,-38 8,-7 17,-10 29,-10 12,0 22,4 30,12 8,8 12,20 12,34 0,12 -1,21 -5,28 -3,7 -9,12 -15,16 -7,3 -14,5 -22,5 -13,0 -24,-4 -31,-12 -8,-8 -12,-20 -12,-35zm16 0c0,11 2,20 7,26 5,6 12,9 20,9 7,0 14,-3 19,-9 5,-6 8,-15 8,-27 0,-11 -3,-20 -8,-25 -5,-6 -12,-9 -19,-9 -8,0 -15,3 -20,8 -5,6 -7,15 -7,27z"/>
  <path id="180" class="fil13" d="M12507 7946l0 -13c-7,10 -16,15 -29,15 -5,0 -10,-1 -15,-3 -4,-2 -8,-4 -10,-8 -2,-3 -4,-7 -5,-11 0,-3 -1,-8 -1,-15l0 -56 16 0 0 51c0,8 0,13 1,16 1,4 3,7 6,9 3,3 7,4 12,4 4,0 9,-1 13,-4 4,-2 7,-5 8,-9 2,-4 3,-10 3,-18l0 -49 15 0 0 91 -14 0z"/>
  <path id="181" class="fil13" d="M12605 7946l0 -11c-6,9 -15,13 -26,13 -7,0 -14,-2 -20,-6 -6,-4 -11,-9 -14,-16 -3,-8 -5,-16 -5,-25 0,-9 1,-18 4,-25 3,-8 8,-13 14,-17 6,-4 13,-6 20,-6 6,0 11,1 15,3 5,3 8,6 11,10l0 -46 15 0 0 126 -14 0zm-49 -45c0,11 2,20 7,26 5,6 11,9 18,9 6,0 12,-3 17,-9 5,-5 7,-14 7,-25 0,-12 -2,-22 -7,-27 -5,-6 -11,-9 -18,-9 -7,0 -13,3 -17,8 -5,6 -7,15 -7,27z"/>
  <path id="182" class="fil13" d="M12687 7901c0,-17 5,-30 14,-38 8,-7 18,-10 29,-10 12,0 23,4 31,12 8,8 12,20 12,34 0,12 -2,21 -6,28 -3,7 -8,12 -15,16 -7,3 -14,5 -22,5 -13,0 -23,-4 -31,-12 -8,-8 -12,-20 -12,-35zm16 0c0,11 2,20 8,26 5,6 11,9 19,9 8,0 14,-3 19,-9 5,-6 8,-15 8,-27 0,-11 -3,-20 -8,-25 -5,-6 -11,-9 -19,-9 -8,0 -14,3 -19,8 -6,6 -8,15 -8,27z"/>
  <path id="183" class="fil13" d="M12839 7946l0 -79 -29 0 0 79 -15 0 0 -79 -14 0 0 -12 14 0 0 -9c0,-9 2,-16 6,-21 3,-5 10,-7 18,-7 6,0 11,1 16,2l-3 13c-3,0 -5,-1 -8,-1 -5,0 -9,1 -11,3 -2,3 -3,7 -3,14l0 6 29 0 0 -9c0,-9 2,-16 6,-21 4,-5 10,-7 19,-7 5,0 11,1 16,2l-3 13c-3,0 -6,-1 -8,-1 -6,0 -9,1 -11,3 -2,3 -3,7 -3,14l0 6 18 0 0 12 -18 0 0 79 -16 0z"/>
  <polygon id="184" class="fil13" points="12890,7946 12890,7929 12907,7929 12907,7946 "/>
 </g>
</svg>
